<?xml version="1.0" encoding="utf-8" ?>
<svg xmlns="http://www.w3.org/2000/svg" xmlns:xlink="http://www.w3.org/1999/xlink" width="5000" height="5000">
	<path transform="scale(4.88281 4.88281)" d="M511.612 50.3929C515.554 51.4394 553.149 82.0482 559.795 87.1511L723.003 212.141L777.078 253.455C788.74 262.369 800.161 271.651 812.393 279.779C812.63 296.336 812.465 312.914 812.471 329.473C838.086 329.825 863.749 329.506 889.369 329.513C901.021 329.516 912.797 329.174 924.433 329.755C911.532 350.248 894.291 368.333 881.491 388.819C905.255 388.536 929.305 388.177 953.047 388.968C948.822 396.161 943.164 402.73 938.138 409.382L912.265 444.002L847.67 532.094C836.396 547.43 824.682 562.483 813.667 578C813.276 591.56 813.553 605.195 813.541 618.763L813.485 694.596C802.303 703.713 791.778 713.772 781.158 723.533L732.688 768.066L590.959 896.664L549.179 934.568C538.871 944.014 528.758 953.691 518.134 962.787C516.392 964.278 513.312 967.364 511.02 967.543L509.706 966.414L210.48 694.405L210.487 577.94C204.838 569.542 198.538 561.565 192.445 553.487L164.935 516.943L68.4431 388.521L140.981 388.564C125.531 369.243 110.545 349.277 95.6171 329.547C133.776 330.18 171.973 329.809 210.138 329.852C209.894 313.525 210.067 297.171 210.049 280.841C243.594 255.969 276.551 230.165 309.667 204.714L431.486 111.564L482.538 72.629C492.241 65.2004 501.706 57.5642 511.612 50.3929ZM592.903 583.47C587.224 595.222 580.447 606.525 573.822 617.767L546.19 663.994C540.759 673.051 520.121 705.502 518.625 713.585C516.543 724.841 518.005 737.316 518.105 748.744L518.484 814.329C529.764 805.105 540.419 795.242 551.225 785.477C560.386 777.199 569.723 769.073 578.7 760.596C605.913 736.471 632.584 711.692 659.52 687.255C674.975 673.233 691.654 659.958 705.929 644.729C705.444 624.413 705.263 603.911 706.037 583.602C668.333 583.553 630.605 583.107 592.903 583.47ZM353.321 583.288C352.699 600.287 353.436 617.366 353.172 634.38L448.9 720.187L478.965 747.116C487.361 754.613 495.801 762.371 504.981 768.905C505.822 750.61 505.223 730.18 504.841 711.753C500.527 705.889 497.147 698.96 493.551 692.626L474.148 658.486C459.743 633.313 443.919 608.865 430.776 582.993C413.753 582.718 396.709 582.978 379.686 583.109C370.996 583.176 361.971 582.647 353.321 583.288Z"/>
	<path fill="#15AFFD" transform="scale(4.88281 4.88281)" d="M628.935 523.695C643.618 523.093 658.438 523.494 673.137 523.509C667.589 534.016 660.357 543.306 654.561 553.608C640.106 553.588 625.666 554.011 611.21 553.965C616.995 543.816 622.671 533.559 628.935 523.695Z"/>
	<path fill="#15AFFD" transform="scale(4.88281 4.88281)" d="M729.432 358.99L778.846 359.025C771.761 368.622 764.377 378.668 758.331 388.942C742.671 389.262 726.951 388.974 711.284 388.969C716.223 378.569 723.235 368.679 729.432 358.99Z"/>
	<path fill="#58BDE5" transform="scale(4.88281 4.88281)" d="M778.846 359.025L867.389 359.054C860.216 368.951 853.306 379.795 845.275 388.989L758.331 388.942C764.377 378.668 771.761 368.622 778.846 359.025Z"/>
	<path fill="#15AFFD" transform="scale(4.88281 4.88281)" d="M692.268 418.623C710.367 419.224 728.695 418.757 746.807 418.633L712.545 468.889C707.694 476.108 700.152 485.977 696.98 493.773C697.212 494.758 696.992 494.447 697.343 494.857C691.011 493.64 683.38 494.486 676.885 494.556L646.296 494.639C651.369 482.979 659.082 472.211 665.84 461.464L692.268 418.623Z"/>
	<path fill="#58BDE5" transform="scale(4.88281 4.88281)" d="M164.682 358.742L297.476 359.034C302.414 366.211 312.447 379.963 314.756 388.047C313.426 388.9 311.658 388.765 310.122 388.854C294.834 389.328 279.461 388.986 264.16 388.986L180.532 388.978C173.658 378.649 165.589 368.955 158.091 359.067C160.283 358.903 162.486 358.839 164.682 358.742Z"/>
	<path fill="#58BDE5" transform="scale(4.88281 4.88281)" d="M382.171 287.621C396.491 275.319 412.222 264.23 427.173 252.676L510.67 187.948C512.343 199.506 510.941 216.162 511.065 228.345C507.271 231.169 503.745 234.315 499.971 237.164C477.898 253.826 455.699 270.447 434.056 287.663C428.359 288.708 421.887 288.315 416.099 288.284C404.79 288.224 393.476 287.923 382.171 287.621Z"/>
	<path fill="#58BDE5" transform="scale(4.88281 4.88281)" d="M673.137 523.509C721.111 523.512 769.152 522.869 817.116 523.354C809.948 533.74 802.004 543.591 794.896 553.994L654.561 553.608C660.357 543.306 667.589 534.016 673.137 523.509Z"/>
	<path fill="#58BDE5" transform="scale(4.88281 4.88281)" d="M269.613 418.45L333.821 418.515C343.069 434.923 352.744 451.115 362.236 467.384C367.323 476.103 373.048 484.735 377.128 493.974L324.484 493.965C320.319 487.138 315.225 480.619 310.467 474.19L287.388 443.546C281.746 436.207 272.896 426.984 269.613 418.45Z"/>
	<path fill="#58BDE5" transform="scale(4.88281 4.88281)" d="M209.643 521.721C219.191 521.839 228.73 521.452 238.275 521.516L393.541 522.042C400.065 531.853 405.879 542.46 411.777 552.674L411.344 553.478L230.622 553.647C226.943 549.099 208.877 526.911 208.461 522.138L209.643 521.721Z"/>
	<path fill="#3974CB" transform="scale(4.88281 4.88281)" d="M510.67 187.948C512.328 187.672 513.123 188.33 514.459 189.292C543.437 210.149 571.036 233.159 599.199 255.11C612.782 265.697 628.779 275.186 640.683 287.669C599.304 288.431 557.882 287.7 516.486 287.644C488.993 287.607 461.535 288.659 434.056 287.663C455.699 270.447 477.898 253.826 499.971 237.164C503.745 234.315 507.271 231.169 511.065 228.345C510.941 216.162 512.343 199.506 510.67 187.948Z"/>
	<path fill="#58BDE5" transform="scale(4.88281 4.88281)" d="M318.467 583.411C329.848 583.717 341.988 584.077 353.321 583.288C352.699 600.287 353.436 617.366 353.172 634.38L448.9 720.187L478.965 747.116C487.361 754.613 495.801 762.371 504.981 768.905C504.525 784.141 505.143 799.46 504.85 814.715C497.747 807.503 489.732 800.93 482.175 794.18L441.368 757.732L318.706 647.482C318.728 626.14 319.057 604.745 318.467 583.411Z"/>
	<path fill="#58BDE5" transform="scale(4.88281 4.88281)" d="M128.433 418.744C141.332 418.137 154.369 418.493 167.284 418.497L232.255 418.479C244.688 418.354 257.184 418.169 269.613 418.45C272.896 426.984 281.746 436.207 287.388 443.546L310.467 474.19C315.225 480.619 320.319 487.138 324.484 493.965C312.473 494.553 300.315 495.191 288.344 493.801C253.817 492.793 219.104 493.53 184.562 493.66C178.447 483.624 170.321 474.277 163.157 464.936L128.433 418.744Z"/>
	<path fill="#FEFEFE" transform="scale(4.88281 4.88281)" d="M232.255 418.479C244.688 418.354 257.184 418.169 269.613 418.45C272.896 426.984 281.746 436.207 287.388 443.546L310.467 474.19C315.225 480.619 320.319 487.138 324.484 493.965C312.473 494.553 300.315 495.191 288.344 493.801C281.872 486.688 276.646 477.45 270.839 469.686C258.031 452.559 244.78 435.829 232.255 418.479Z"/>
	<path fill="#58BDE5" transform="scale(4.88281 4.88281)" d="M778.882 418.513C802.585 419.107 826.291 419.12 850 418.98C863.97 418.897 877.962 418.47 891.932 418.831C874.059 443.904 854.119 468.952 837.287 494.491L768.272 494.474C755.874 494.465 743.235 493.791 730.876 494.737C719.763 495.212 708.462 495.205 697.343 494.857C696.992 494.447 697.212 494.758 696.98 493.773C700.152 485.977 707.694 476.108 712.545 468.889L746.807 418.633C757.486 418.342 768.194 418.721 778.882 418.513Z"/>
	<path fill="#FEFEFE" transform="scale(4.88281 4.88281)" d="M746.807 418.633C757.486 418.342 768.194 418.721 778.882 418.513L781.573 419.129L781.672 419.594C770.955 435.862 759.551 451.758 748.484 467.796C742.467 476.517 735.884 485.399 730.876 494.737C719.763 495.212 708.462 495.205 697.343 494.857C696.992 494.447 697.212 494.758 696.98 493.773C700.152 485.977 707.694 476.108 712.545 468.889L746.807 418.633Z"/>
	<path fill="#D68957" transform="scale(4.88281 4.88281)" d="M308.558 318.521L510.269 318.533C510.621 326.392 510.496 334.295 510.519 342.162C510.537 347.846 510.962 353.955 510.114 359.589L476.451 359.574C476.314 370.318 474.777 388.103 477.201 398.116C478.022 401.506 479.555 404.667 482.022 407.165C487.765 412.981 495.894 413.066 503.494 412.938L509.785 412.793C511.324 418.343 510.747 423.299 510.306 428.943L481.995 428.973C480.757 433.912 476.903 442.192 477.609 447.093C479.506 448.369 505.528 447.572 510.1 447.524C511.401 457.237 510.438 468.054 510.44 477.897L510.467 539.625L510.545 613.275C510.58 623.945 511.804 648.66 509.55 657.813C500.413 643.926 492.335 629.138 483.919 614.801L438.864 538.105L308.558 318.521Z"/>
	<path transform="scale(4.88281 4.88281)" d="M403.729 359.686C415.795 359.648 427.891 359.99 439.968 359.986C449.653 359.982 459.374 359.593 469.052 359.817C466.808 365.863 465.255 372.116 463.572 378.336L425.498 378.33L425.504 392.972L463.516 392.991L463.511 412.016L426.539 412.038L425.983 412.327C424.457 415.305 425.421 425.196 425.56 428.972L468.517 428.991L468.526 447.736C460.369 448.302 452.08 448.029 443.906 448.032L403.496 448.032L403.465 395.053C403.405 383.276 402.782 371.439 403.729 359.686Z"/>
	<path fill="#FEFEFE" transform="scale(4.88281 4.88281)" d="M511.168 85.8934C517.24 88.0091 558.386 121.717 566.858 128.202L696.214 227.591C725.688 250.205 755.495 272.464 784.37 295.841C784.108 307.057 784.099 318.277 784.051 329.496L746.555 329.685L746.528 287.997L689.258 288.271L564.897 192.4C547.105 178.707 529.505 164.849 511.466 151.473C504.97 155.975 499.081 161.11 492.889 165.994C484.017 172.993 474.952 179.769 465.973 186.633C421.793 220.405 378.221 254.986 333.396 287.91C315.592 289.106 297.348 287.977 279.485 288.012C279.08 301.83 279.295 315.666 279.4 329.488L237.915 329.481L237.993 296.292L397.175 173.187C435.107 144.033 472.857 114.543 511.168 85.8934Z"/>
	<path fill="#EF731A" transform="scale(4.88281 4.88281)" d="M510.269 318.533L718.094 318.512C690.017 366.591 659.523 413.26 630.794 460.954C590.634 527.626 551.998 595.236 511.587 661.754L509.55 657.813C511.804 648.66 510.58 623.945 510.545 613.275L510.467 539.625L510.44 477.897C510.438 468.054 511.401 457.237 510.1 447.524C505.528 447.572 479.506 448.369 477.609 447.093C476.903 442.192 480.757 433.912 481.995 428.973L510.306 428.943C510.747 423.299 511.324 418.343 509.785 412.793L503.494 412.938C495.894 413.066 487.765 412.981 482.022 407.165C479.555 404.667 478.022 401.506 477.201 398.116C474.777 388.103 476.314 370.318 476.451 359.574L510.114 359.589C510.962 353.955 510.537 347.846 510.519 342.162C510.496 334.295 510.621 326.392 510.269 318.533Z"/>
	<path transform="scale(4.88281 4.88281)" d="M510.114 359.589C522.638 359.859 535.218 360.009 547.744 359.994C547.736 365.996 547.82 372.016 547.697 378.015L523.575 377.973C519.138 377.97 514.298 377.653 509.904 378.249C510.994 383.04 510.63 388.105 510.478 392.985C522.9 392.555 535.338 392.683 547.766 392.699C548.075 410.969 548.034 429.238 548.028 447.51L510.1 447.524C505.528 447.572 479.506 448.369 477.609 447.093C476.903 442.192 480.757 433.912 481.995 428.973L510.306 428.943C510.747 423.299 511.324 418.343 509.785 412.793L503.494 412.938C495.894 413.066 487.765 412.981 482.022 407.165C479.555 404.667 478.022 401.506 477.201 398.116C474.777 388.103 476.314 370.318 476.451 359.574L510.114 359.589Z"/>
	<path fill="#D68957" transform="scale(4.88281 4.88281)" d="M497.321 378.368L509.904 378.249C510.994 383.04 510.63 388.105 510.478 392.985L497.326 392.973L497.321 378.368Z"/>
	<path fill="#EF731A" transform="scale(4.88281 4.88281)" d="M509.785 412.793C515.357 412.741 520.932 412.739 526.498 412.473L526.494 428.994L510.306 428.943C510.747 423.299 511.324 418.343 509.785 412.793Z"/>
	<path transform="scale(4.88281 4.88281)" d="M573.019 359.747C583.931 359.53 595.986 359.234 606.509 362.347C617.021 365.455 625.497 372.398 630.685 382.059C636.611 393.094 637.911 406.375 634.288 418.36C631.013 429.195 624.586 436.894 614.688 442.267C599.252 450.164 575.111 447.814 558.001 447.507L558.305 360.005C563.22 360.014 568.108 359.989 573.019 359.747Z"/>
	<path fill="#EF731A" transform="scale(4.88281 4.88281)" d="M580.083 378.749C588.364 378.335 598.347 377.999 605.252 383.362C610.19 387.199 612.87 393.168 613.573 399.282C614.592 408.159 612.155 415.817 606.585 422.731C599.016 429.83 589.546 429.019 579.968 429.005C579.404 422.593 579.711 415.92 579.712 409.48C579.713 399.234 579.656 388.988 580.083 378.749Z"/>
	<path fill="#FEFEFE" transform="scale(4.88281 4.88281)" d="M238.52 583.01L289.814 583.023C288.547 607.923 289.507 633.883 289.514 658.882C298.038 667.015 307.025 674.748 315.786 682.627L363.214 725.275L511.634 858.757C523.55 849.13 534.595 838.415 545.947 828.135L605.744 773.979L683.232 703.793C700.094 688.524 717.123 673.506 733.5 657.708L733.516 583.327C750.391 582.557 767.806 582.548 784.684 583.334L784.576 655.664L784.73 683.087C774.817 690.809 766.298 700.098 757.052 708.568L700.824 759.508L511.819 931.255L238.516 681.764L238.52 583.01Z"/>
</svg>
