<?xml version="1.0" encoding="utf-8" ?>
<svg xmlns="http://www.w3.org/2000/svg" xmlns:xlink="http://www.w3.org/1999/xlink" width="5000" height="5000">
	<path fill="#3974CB" transform="scale(4.88281 4.88281)" d="M639.057 720.404L671.177 720.489C670.883 730.805 670.942 741.126 670.947 751.446C660.304 751.104 649.706 751.203 639.063 751.406L639.057 720.404Z"/>
	<path fill="#3974CB" transform="scale(4.88281 4.88281)" d="M127.527 496.072L158.843 496.097L158.902 527.479L127.603 527.6L127.527 496.072Z"/>
	<path fill="#D68A57" transform="scale(4.88281 4.88281)" d="M847.682 498.549C858.431 498.565 869.173 498.273 879.923 498.356C880.029 508.579 880.791 519.047 879.531 529.215C869.015 528.829 858.431 529.089 847.918 529.439C847.899 519.144 847.969 508.84 847.682 498.549Z"/>
	<path fill="#3974CB" transform="scale(4.88281 4.88281)" d="M240.552 656.064L272.78 656.027C272.662 660.572 273.376 686.122 271.978 688.059C261.571 688.052 251.17 688.07 240.765 688.233L240.552 656.064Z"/>
	<path fill="#D68A57" transform="scale(4.88281 4.88281)" d="M353.017 783.037L385.93 783.106C385.964 793.48 386.673 804.439 385.828 814.748L385.122 815.256L353.078 815.216L353.017 783.037Z"/>
	<path fill="#D68A57" transform="scale(4.88281 4.88281)" d="M716.595 608.369C724.832 601.708 732.235 593.409 739.342 585.564C749.397 596.615 760.018 608.787 771.766 618.037C764.4 625.694 756.892 633.214 749.411 640.759C738.188 630.275 727.447 619.235 716.595 608.369Z"/>
	<path fill="#D68A57" transform="scale(4.88281 4.88281)" d="M527.542 685.751L527.569 735.368C517.1 735.006 505.894 734.16 495.496 735.465C495.709 719.032 495.511 702.573 495.508 686.138C502.595 687.596 520.171 686.931 527.542 685.751Z"/>
	<path fill="#D68A57" transform="scale(4.88281 4.88281)" d="M98.0584 367.588L209.501 367.814C209.066 378.509 208.609 388.898 209.514 399.597L98.0659 399.621L98.0584 367.588Z"/>
	<path transform="scale(4.88281 4.88281)" d="M495.496 735.465C505.894 734.16 517.1 735.006 527.569 735.368C538.154 735.493 548.761 735.751 559.344 735.705L559.34 849.238C559.388 865.417 561.613 890.48 558.538 905.679C556.727 914.629 552.002 923.02 545.609 929.513C536.705 938.557 523.466 944.02 510.765 943.998C498.336 943.977 486.069 938.243 477.456 929.444C471.52 923.38 467.041 916.005 465.211 907.676C461.955 892.865 463.409 864.32 463.396 848.251L463.236 735.516L495.496 735.465Z"/>
	<path fill="#3974CB" transform="scale(4.88281 4.88281)" d="M495.508 766.508L527.982 766.509L527.954 857.531C527.962 869.01 529.302 890.421 527.275 900.739C526.719 903.57 524.766 905.876 522.964 908.024C519.632 910.217 516.578 911.535 512.509 911.678C508.103 911.833 503.549 910.399 500.34 907.308C497.736 904.799 496.325 901.746 495.759 898.215C493.268 882.665 495.151 865.58 495.286 849.846L495.508 766.508Z"/>
	<path transform="scale(4.88281 4.88281)" d="M771.766 618.037C777.797 612.111 783.765 605.813 790.355 600.502C799.247 608.042 807.36 617.09 815.601 625.362L859.302 668.682C869.882 679.305 880.286 690.799 891.663 700.533C907.11 717.941 925.254 732.953 940.754 750.283C925.887 764.65 911.32 779.321 896.706 793.944C889.796 800.859 883.038 808.153 875.841 814.757C859.197 799.63 843.636 783.079 827.75 767.147C823.298 760.108 804.745 743.66 797.977 737.002L753.08 692.194C743.947 683.072 734.545 674.194 725.681 664.808C733.094 656.433 741.592 648.776 749.411 640.759C756.892 633.214 764.4 625.694 771.766 618.037Z"/>
	<path fill="#3974CB" transform="scale(4.88281 4.88281)" d="M790.5 645.882C794.841 648.493 812.456 667.285 817.23 672.009C843.294 697.797 870.073 723.103 894.94 750.066C888.573 756.711 881.946 763.083 875.479 769.629C870.669 766.701 866.308 761.353 862.334 757.371L837.319 732.059L770.642 665.624C777.154 658.94 783.602 652.172 790.5 645.882Z"/>
	<path fill="#3974CB" transform="scale(4.88281 4.88281)" d="M944.358 647.055L944.098 943.441L752.055 943.399C718.621 943.395 685.135 943.006 651.708 943.449L772.536 822.689C790.963 804.251 809.807 786.051 827.75 767.147C843.636 783.079 859.197 799.63 875.841 814.757C883.038 808.153 889.796 800.859 896.706 793.944C911.32 779.321 925.887 764.65 940.754 750.283C925.254 732.953 907.11 717.941 891.663 700.533C909.017 682.584 926.145 664.138 944.358 647.055Z"/>
	<path fill="#3974CB" transform="scale(4.88281 4.88281)" d="M80.1512 649.732C84.8011 652.42 94.0413 663.758 98.136 668.039L119.464 689.902C178.791 750.935 239.71 810.537 299.882 870.741L347.217 917.736C355.361 925.783 365.037 933.92 371.941 943.026C329.256 942.047 286.396 942.892 243.69 942.937C189.305 942.994 134.895 942.464 80.5154 943.053L80.1512 649.732Z"/>
	<path fill="#3974CB" transform="scale(4.88281 4.88281)" d="M650.342 79.5633L943.901 79.6367L944.096 372.771C934.228 363.945 925.125 353.79 915.787 344.388L863.628 292.298L717.027 144.525C695.032 122.624 672.665 101.126 650.342 79.5633Z"/>
	<path fill="#3974CB" transform="scale(4.88281 4.88281)" d="M80.2341 79.5376L263.05 79.52L331.833 79.5294C345.314 79.5423 358.906 79.243 372.372 79.8219C354.927 97.6661 336.861 115.05 318.935 132.408C309.051 141.979 298.965 151.357 289.488 161.337L297.757 168.391C289.657 176.426 281.625 184.979 274.826 194.155C272.283 191.359 269.67 188.772 266.846 186.259C248.399 205.908 228.898 224.623 209.798 243.64C166.656 286.596 122.973 329.168 80.5463 372.82L80.2341 79.5376Z"/>
	<path fill="#D68A57" transform="scale(4.88281 4.88281)" d="M233.175 105.918C238.345 110.724 243.164 116.062 248.143 121.082C257.09 130.102 266.146 138.98 275.288 147.802C279.925 152.277 284.42 157.4 289.488 161.337L297.757 168.391C289.657 176.426 281.625 184.979 274.826 194.155C272.283 191.359 269.67 188.772 266.846 186.259C260.139 181.498 253.629 173.636 247.726 167.735C235.006 155.019 222.133 142.414 209.645 129.473C217.012 121.301 225.333 113.643 233.175 105.918Z"/>
	<path transform="scale(4.88281 4.88281)" d="M297.757 168.391C309.869 157.294 322.072 146.157 335.468 136.611C390.817 97.1709 459.363 77.5062 527.136 80.5432C606.213 84.0868 682.657 120.225 736.041 178.646C791.503 239.34 818.836 319.626 814.951 401.496C812.442 454.357 794.62 506.291 765.568 550.373C760.842 557.544 755.931 564.485 750.6 571.219C746.955 575.823 742.382 580.582 739.342 585.564C732.235 593.409 724.832 601.708 716.595 608.369C708.604 614.518 701.174 621.36 693.001 627.282C657.716 652.85 616.238 672.383 573.226 680.253C563.202 682.087 553.047 683.211 542.911 684.205C537.898 684.697 532.465 684.801 527.542 685.751C520.171 686.931 502.595 687.596 495.508 686.138C489.968 684.701 483.354 684.743 477.603 684.167C468.613 683.268 459.733 682.034 450.852 680.362C400.957 670.963 352.738 647.47 314.198 614.49C265.443 572.769 229.63 512.976 215.998 450.272C212.345 433.469 210.828 416.704 209.514 399.597C208.609 388.898 209.066 378.509 209.501 367.814C212.998 303.95 234.81 244.219 274.826 194.155C281.625 184.979 289.657 176.426 297.757 168.391ZM355.62 223.626C349.798 232.144 341.725 239.664 334.822 247.349C325.853 260.271 317.435 273.315 310.461 287.44C289.737 329.409 283.065 377.344 291.4 423.395C301.744 480.545 333.666 533.552 381.651 566.839C431.263 601.254 493.835 614.898 553.275 604.13C594.672 596.631 632.006 578.877 663.685 551.169C671.349 543.64 679.236 536.047 685.833 527.555C688.977 521.725 693.402 516.548 697.188 511.129C699.675 507.568 701.776 503.621 703.911 499.84C725.289 461.987 735.869 419.989 734.824 376.5C733.428 318.388 708.887 261.467 666.659 221.353C622.457 179.364 564.399 157.604 503.612 159.228C449.336 160.678 393.121 184.141 355.62 223.626ZM321.525 190.158C333.191 200.972 343.492 213.305 355.62 223.626C393.121 184.141 449.336 160.678 503.612 159.228C564.399 157.604 622.457 179.364 666.659 221.353C708.887 261.467 733.428 318.388 734.824 376.5C735.869 419.989 725.289 461.987 703.911 499.84C701.776 503.621 699.675 507.568 697.188 511.129C693.402 516.548 688.977 521.725 685.833 527.555C679.236 536.047 671.349 543.64 663.685 551.169C670.388 556.998 676.38 563.655 682.489 570.092C687.039 574.888 691.861 579.563 696.05 584.68C703.624 576.942 712.372 569.151 719.161 560.753C724.827 554.294 729.792 547.188 734.644 540.11C762.337 499.719 779.456 451.744 782.728 402.81C787.736 327.93 763.15 258.048 713.854 201.786C703.822 190.336 692.686 180.49 680.716 171.107C637.169 136.975 585.015 116.136 529.663 112.487C468.801 108.474 406.108 125.891 356.284 161.09C347.895 167.017 339.728 173.395 332.06 180.231C328.456 183.444 325.152 186.977 321.525 190.158ZM300.006 213.69C254.905 268.237 234.637 340.814 241.28 410.904C246.675 467.821 271.017 523.926 309.436 566.342C318.449 576.294 328.511 585.344 338.856 593.882C394.935 640.17 468.997 660.68 541.05 653.711C586.546 649.311 632.947 632.215 670.264 605.798C679.372 599.35 687.677 592.036 696.05 584.68C691.861 579.563 687.039 574.888 682.489 570.092C676.38 563.655 670.388 556.998 663.685 551.169C632.006 578.877 594.672 596.631 553.275 604.13C493.835 614.898 431.263 601.254 381.651 566.839C333.666 533.552 301.744 480.545 291.4 423.395C283.065 377.344 289.737 329.409 310.461 287.44C317.435 273.315 325.853 260.271 334.822 247.349C323.331 236.084 312.206 224.181 300.006 213.69Z"/>
	<path fill="#D68A57" transform="scale(4.88281 4.88281)" d="M663.685 551.169C671.349 543.64 679.236 536.047 685.833 527.555C696.67 538.717 707.391 550.579 719.161 560.753C712.372 569.151 703.624 576.942 696.05 584.68C691.861 579.563 687.039 574.888 682.489 570.092C676.38 563.655 670.388 556.998 663.685 551.169Z"/>
	<path fill="#3974CB" transform="scale(4.88281 4.88281)" d="M355.62 223.626C393.121 184.141 449.336 160.678 503.612 159.228C564.399 157.604 622.457 179.364 666.659 221.353C708.887 261.467 733.428 318.388 734.824 376.5C735.869 419.989 725.289 461.987 703.911 499.84C701.776 503.621 699.675 507.568 697.188 511.129C693.402 516.548 688.977 521.725 685.833 527.555C679.236 536.047 671.349 543.64 663.685 551.169C632.006 578.877 594.672 596.631 553.275 604.13C493.835 614.898 431.263 601.254 381.651 566.839C333.666 533.552 301.744 480.545 291.4 423.395C283.065 377.344 289.737 329.409 310.461 287.44C317.435 273.315 325.853 260.271 334.822 247.349C341.725 239.664 349.798 232.144 355.62 223.626ZM505.977 279.214C490.706 280.163 475.429 281.762 460.456 284.986C403.025 297.35 351.082 329.537 312.437 373.448C307.271 379.318 299.662 387.58 295.809 394.204C296.084 395.204 296.235 395.326 296.942 396.029L297.311 395.024C298.986 396.487 299.972 398.645 301.361 400.382C304.314 404.077 307.457 407.667 310.5 411.291C317.687 419.848 325.494 427.724 333.544 435.464C339.625 441.31 345.659 447.526 352.268 452.767C396.885 488.153 455.954 507.872 512.79 507.51C523.156 507.172 533.511 506.752 543.809 505.461C601.222 498.266 657.357 473.948 697.276 431.337C707.63 420.285 716.564 407.695 724.8 395.017C691.329 340.041 631.124 301.208 569.206 286.136C550.16 281.499 525.598 277.519 505.977 279.214Z"/>
	<defs>
		<linearGradient id="gradient_0" gradientUnits="userSpaceOnUse" x1="311.80692" y1="342.55942" x2="708.84625" y2="443.3681">
			<stop offset="0" stop-color="white" stop-opacity="0.80784315"/>
			<stop offset="1" stop-color="white"/>
		</linearGradient>
	</defs>
	<path fill="url(#gradient_0)" transform="scale(4.88281 4.88281)" d="M505.977 279.214C525.598 277.519 550.16 281.499 569.206 286.136C631.124 301.208 691.329 340.041 724.8 395.017C716.564 407.695 707.63 420.285 697.276 431.337C657.357 473.948 601.222 498.266 543.809 505.461C533.511 506.752 523.156 507.172 512.79 507.51C455.954 507.872 396.885 488.153 352.268 452.767C345.659 447.526 339.625 441.31 333.544 435.464C325.494 427.724 317.687 419.848 310.5 411.291C307.457 407.667 304.314 404.077 301.361 400.382C299.972 398.645 298.986 396.487 297.311 395.024L296.942 396.029C296.235 395.326 296.084 395.204 295.809 394.204C299.662 387.58 307.271 379.318 312.437 373.448C351.082 329.537 403.025 297.35 460.456 284.986C475.429 281.762 490.706 280.163 505.977 279.214Z"/>
	<path fill="#FEFEFE" transform="scale(4.88281 4.88281)" d="M370.601 448.264C381.887 455.62 393.251 462.498 405.43 468.301C454.815 491.832 510.797 497.896 564.246 486.564C576.894 483.883 589.797 480.479 601.939 476.01C608.837 473.472 615.504 470.273 622.401 467.776L622.258 468.374C620.113 470.838 611.863 473.566 608.416 474.937C563.705 492.723 517.073 497.558 469.622 489.465C451.406 486.358 433.918 481.686 416.898 474.443C415.14 473.695 414.062 473.329 412.261 474.057L409.777 472.987C404.252 470.545 372.551 453.294 370.601 448.264Z"/>
	<path fill="#FEFEFE" transform="scale(4.88281 4.88281)" d="M399.292 322.339L399.059 321.863C402.245 319.638 415.387 312.234 418.818 311.649C419.875 311.469 420.416 311.477 421.287 310.807C421.529 310.621 421.761 310.423 421.998 310.231C424.433 310.456 426.95 308.442 429.317 307.828C434.766 306.415 440.142 304.27 445.541 302.614C454.359 299.911 463.452 297.684 472.473 295.795C513.51 287.206 557.156 293.933 596.015 308.472L595.971 309.178C605.076 313.632 614.703 316.914 623.778 321.52C659.27 339.536 684.529 362.785 707.43 394.999C691.482 420.294 668.813 441.567 643.122 456.791C636.396 460.776 629.082 463.763 622.401 467.776C615.504 470.273 608.837 473.472 601.939 476.01C589.797 480.479 576.894 483.883 564.246 486.564C510.797 497.896 454.815 491.832 405.43 468.301C393.251 462.498 381.887 455.62 370.601 448.264C364.744 443.51 358.368 439.412 352.542 434.582C338.141 422.642 326.025 409.365 313.857 395.223C337.174 363.333 365.298 341.805 399.292 322.339Z"/>
	<path fill="#B75C32" transform="scale(4.88281 4.88281)" d="M469.158 333.902C483.032 322.402 499.426 317.11 517.495 318.754C536.436 320.477 553.825 330.214 565.926 344.784C577.777 359.053 583.639 377.728 581.895 396.21C580.143 414.777 570.675 432.473 556.247 444.283C541.379 456.453 522.075 462.352 502.93 460.273C484.318 458.253 467.342 448.727 455.659 434.109C443.92 419.423 439.28 400.583 441.497 382.019C443.282 367.074 450.097 354.91 459.489 343.434C455.635 352.974 453.315 361.698 457.627 371.697C460.804 379.063 463.398 378.885 466.616 383.68C469.07 385.449 472.05 387.028 474.866 388.134C482.125 390.988 490.096 390.801 497.199 387.611C504.578 384.298 510.455 378.098 513.216 370.475C516.474 361.479 514.626 352.746 510.666 344.357C506.273 337.353 501.05 332.778 492.764 330.856C484.359 328.906 476.933 330.539 469.158 333.902Z"/>
	<path transform="scale(4.88281 4.88281)" d="M510.666 344.357C516.024 342.303 524.717 345.445 529.773 347.658C540.778 352.477 548.91 362.324 553.073 373.421C557.311 384.721 556.82 397.353 551.728 408.282C546.657 419.165 538.087 427.388 526.758 431.512C515.676 435.546 502.7 435.028 491.99 430.004C480.901 424.803 472.424 415.618 468.298 404.066C466.134 398.006 464.478 389.929 466.616 383.68C469.07 385.449 472.05 387.028 474.866 388.134C482.125 390.988 490.096 390.801 497.199 387.611C504.578 384.298 510.455 378.098 513.216 370.475C516.474 361.479 514.626 352.746 510.666 344.357Z"/>
	<path fill="#D68A57" transform="scale(4.88281 4.88281)" d="M399.292 322.339C405.676 319.936 411.675 315.944 418.031 313.293C439.461 304.357 462.851 297.398 485.958 294.715C489.296 294.327 492.568 293.65 495.94 293.696L495.567 294.054C493.002 294.478 490.503 295.389 487.977 296.032C469.498 300.735 453.561 309.666 440.614 323.844C422.978 343.156 413.229 368.952 414.649 395.16C416.054 421.1 427.555 445.212 447.002 462.473C466.891 480.128 492.653 488.646 519.126 486.964C544.759 485.336 567.974 474.322 584.929 454.959C602.161 435.278 610.439 409.215 608.587 383.188C605.885 345.226 581.508 311.853 545.569 298.899C541.257 297.345 536.696 295.609 532.162 294.908C530.13 294.594 526.728 294.709 525.198 293.374L526.099 293.174C528.872 294.274 533.588 293.96 536.663 294.341C540.967 294.875 545.232 295.621 549.483 296.472C565.424 299.664 580.561 304.095 595.971 309.178C605.076 313.632 614.703 316.914 623.778 321.52C659.27 339.536 684.529 362.785 707.43 394.999C691.482 420.294 668.813 441.567 643.122 456.791C636.396 460.776 629.082 463.763 622.401 467.776C615.504 470.273 608.837 473.472 601.939 476.01C589.797 480.479 576.894 483.883 564.246 486.564C510.797 497.896 454.815 491.832 405.43 468.301C393.251 462.498 381.887 455.62 370.601 448.264C364.744 443.51 358.368 439.412 352.542 434.582C338.141 422.642 326.025 409.365 313.857 395.223C337.174 363.333 365.298 341.805 399.292 322.339Z"/>
</svg>
