<?xml version="1.0" encoding="utf-8" ?>
<svg xmlns="http://www.w3.org/2000/svg" xmlns:xlink="http://www.w3.org/1999/xlink" width="5000" height="5000">
	<path fill="#EDEDEF" transform="scale(4.88281 4.88281)" d="M335.75 557.361C339.88 564.629 341.644 568.156 349.205 572.531C341.912 576.692 339.498 580.627 336.61 588.316C335.075 587.422 333.931 583.85 333.152 582.258C330.565 576.974 328.118 575.643 322.763 573.78C329.169 569.061 333.244 565.151 335.75 557.361Z"/>
	<path fill="#EDEDEF" transform="scale(4.88281 4.88281)" d="M302.213 538.87C304.872 541.575 305.868 550.158 308.053 553.99C310.881 558.948 315.779 560.977 320.998 562.44C301.619 571.078 306.871 584.203 302.329 587.811C301.375 584.228 300.391 580.509 298.856 577.127C295.502 569.738 290.109 565.815 282.729 563.024C285.116 562.069 287.579 561.153 289.829 559.902C298.04 555.338 299.843 547.192 302.213 538.87Z"/>
	<path fill="#18C0EB" transform="scale(4.88281 4.88281)" d="M299.408 239.853C306.488 239.936 313.576 239.852 320.657 239.829L320.76 318.572C320.805 330.855 319.327 344.116 321.306 356.255C322.03 360.693 324.026 364.275 326.257 368.087C323.905 372.429 321.474 376.686 318.938 380.921C317.423 383.195 316.071 385.558 314.703 387.922C308.123 381.075 303.289 373.398 301.038 364.103C297.357 348.902 299.439 331.326 299.452 315.778L299.408 239.853Z"/>
	<path fill="#18C0EB" transform="scale(4.88281 4.88281)" d="M762.374 165.318C768.878 169.494 780.378 182.936 786.609 189.24C799.599 202.38 812.992 215.143 825.859 228.399C817.63 237.126 808.813 245.262 800.64 254.007C796.552 249.577 792.162 245.393 787.89 241.14C791.262 236.888 794.846 232.822 798.855 229.16L762.747 192.952C750.69 205.836 737.776 218.03 725.239 230.455C728.65 234.256 732.168 237.907 735.765 241.53C731.401 245.747 727.085 249.998 722.835 254.331C714.14 246.798 705.752 238.192 697.84 229.837C703.403 223.563 709.813 217.768 715.683 211.758C731.045 196.029 746.471 180.507 762.374 165.318Z"/>
	<path fill="#18C0EB" transform="scale(4.88281 4.88281)" d="M763.963 774.933L785.674 774.895L785.924 814.913C786.029 827.749 785.247 841.061 775.654 850.657C770.928 855.383 764.811 858.678 758.339 860.271C745.332 863.474 730.834 861.862 717.527 861.827L676.75 862.057L655.994 862.143C655.587 854.572 655.51 847.047 655.612 839.468C670.961 839.864 686.34 839.322 701.694 839.645L732.319 840.088C738.276 840.12 744.556 840.469 750.466 839.669C754.041 839.185 757.818 837.993 760.443 835.4C762.562 833.308 763.266 830.652 763.807 827.801C764.867 822.217 764.473 816.206 764.465 810.546C764.447 798.664 764.053 786.808 763.963 774.933Z"/>
	<path fill="#18C0EB" transform="scale(4.88281 4.88281)" d="M762.154 205.785C765.648 206.47 770.514 212.648 773.04 215.259L773.528 396.511C759.588 411.907 744.679 426.482 729.984 441.153C727.121 439.706 720.273 425.961 718.41 422.671C729.956 411.447 741.412 399.854 752.449 388.129L752.546 215.487C755.587 212.129 758.95 208.992 762.154 205.785Z"/>
	<path fill="#18C0EB" transform="scale(4.88281 4.88281)" d="M271.36 812.131C277.717 811.989 284.099 812.097 290.459 812.097L290.461 847.997C290.478 858.595 291.425 869.754 288.711 880.11C287.196 885.891 284.451 890.943 280.25 895.214C275.199 900.352 268.949 903.786 261.971 905.515C250.655 908.32 238.271 907.103 226.695 907.083L183.586 907.165C183.881 918.809 183.528 930.486 183.398 942.133C173.741 933.645 164.872 924.116 155.85 914.962L140.779 899.665C154.05 884.624 169.537 871.334 183.792 857.237C183.078 867.304 183.613 877.849 183.585 887.964L225.251 887.915C235.317 887.947 246.246 889.094 256.102 886.88C259.801 886.049 262.702 884.387 265.415 881.737C267.871 879.338 269.959 876.313 270.772 872.94C272.512 865.724 271.485 856.924 271.458 849.509L271.36 812.131Z"/>
	<path fill="#18C0EB" transform="scale(4.88281 4.88281)" d="M623.973 128.748C647.136 129.218 670.38 128.88 693.552 128.91L693.638 203.072C670.469 202.588 647.182 202.992 624.003 203.07L623.973 128.748ZM642.514 148.111L642.558 183.972L675.263 183.96L675.154 148.049C664.287 148.062 653.377 147.882 642.514 148.111Z"/>
	<path fill="#18C0EB" transform="scale(4.88281 4.88281)" d="M323.71 858.457L396.057 858.473C395.697 882.521 395.749 906.631 395.724 930.683C387.95 931.378 380.063 930.957 372.267 930.921C356.068 930.845 339.788 930.454 323.598 930.941C323.308 906.798 323.586 882.605 323.71 858.457ZM341.526 876.802L341.562 912.404L378.052 912.461L378.069 876.822L341.526 876.802Z"/>
	<path fill="#1B76D2" transform="scale(4.88281 4.88281)" d="M553.827 775.228L750.121 774.937C750.004 783.748 750.112 792.573 750.114 801.385C744.43 801.229 738.693 801.456 733.005 801.54L602.132 801.598C580.331 801.606 556.518 800.666 534.999 801.799L534.947 775.483C541.247 775.488 547.531 775.472 553.827 775.228Z"/>
	<path fill="#18C0EB" transform="scale(4.88281 4.88281)" d="M879.836 321.174C886.137 319.986 893.573 321.858 899.234 324.636C907.372 328.629 913.921 335.951 916.81 344.562C920.007 354.094 919.221 364.984 914.635 373.924C910.341 382.296 903.033 388.984 894.012 391.869C882.775 395.462 872.831 392.752 862.702 387.471C834.245 417.569 804.458 446.55 775.332 476.008C770.073 481.245 764.839 486.5 759.695 491.852C756.268 485.78 752.463 479.892 749.003 473.823C759.048 461.03 773.951 447.777 785.673 436.014C794.999 426.655 804.03 417.021 813.281 407.591C825.532 395.101 837.953 382.805 849.964 370.08C848.864 367.059 847.859 364.067 847.426 360.866C846.139 351.356 849.206 341.986 854.98 334.42C861.377 326.038 869.67 322.557 879.836 321.174ZM882.746 342.124C878.159 342.841 874.089 344.316 871.172 348.127C868.715 351.336 867.887 355.498 868.495 359.455C869.104 363.424 871.257 366.877 874.582 369.135C877.306 370.985 880.328 371.729 883.578 371.955C888.376 370.893 892.224 369.072 894.987 364.827C897.249 361.352 898.016 356.996 896.989 352.972C896.022 349.182 893.649 346.007 890.199 344.13C887.985 342.926 885.258 342.25 882.746 342.124Z"/>
	<path fill="#18C0EB" transform="scale(4.88281 4.88281)" d="M128.045 313.162C134.792 311.966 142.92 313.579 148.943 316.742C157.462 321.217 164.115 329.459 166.903 338.639C170.219 349.562 167.655 359.456 162.477 369.291L232.626 439.44C243.74 450.57 254.62 461.928 266.016 472.773C262.975 478.662 259.156 484.294 255.701 489.956C252.183 487.272 249.034 483.913 245.837 480.851C233.107 469.313 221.429 456.262 209.2 444.164C188.716 423.899 167.308 403.702 147.667 382.704C144.83 383.815 141.994 384.76 138.995 385.326C129.246 387.167 119.535 385.454 111.369 379.714C103.437 374.137 98.273 365.611 96.646 356.086C94.9365 346.077 96.9602 335.858 102.937 327.586C109.038 319.143 117.925 314.743 128.045 313.162ZM130.394 334.106C125.714 335.294 121.569 337.286 118.986 341.554C116.794 345.177 116.465 349.76 117.678 353.772C118.833 357.596 121.413 360.795 124.955 362.662C128.002 364.267 130.875 364.635 134.266 364.481C139.499 362.353 143.871 359.781 146.181 354.3C147.72 350.649 147.751 346.461 146.207 342.807C144.652 339.127 141.689 336.481 137.943 335.151C135.563 334.307 132.915 333.957 130.394 334.106Z"/>
	<path fill="#18C0EB" transform="scale(4.88281 4.88281)" d="M424.782 531.369C433.313 557.678 445.172 575.759 470.439 588.73C489.767 598.652 512.507 600.298 533.145 593.569C554.975 586.451 573.628 570.239 583.909 549.717C586.825 543.898 589.19 537.795 590.967 531.536L636.918 531.501C645.379 531.495 654.032 531.114 662.472 531.683C620.091 569.6 576.29 603.844 517.148 607.292C452.921 611.038 397.935 572.307 352.258 531.573C376.365 530.798 400.655 531.357 424.782 531.369Z"/>
	<path fill="#18C0EB" transform="scale(4.88281 4.88281)" d="M854.329 854.423C861.05 858.609 866.924 865.625 872.504 871.229L898.276 897.157C883.742 911.544 869.695 926.952 854.413 940.508L854.426 907.169C826.614 907.838 798.758 907.555 770.938 907.566L648.75 907.687C623.354 907.619 597.86 907.15 572.476 907.941C577.884 900.553 583.92 893.33 590.065 886.546L854.329 886.543C854.221 875.898 853.819 865.055 854.329 854.423Z"/>
	<path fill="#18C0EB" transform="scale(4.88281 4.88281)" d="M256.42 110.717C257.742 111.289 258.602 112.386 259.454 113.515C263.66 119.094 266.963 125.753 270.634 131.73L294.283 170.53C285.393 170.502 276.408 170.238 267.547 171.012L267.573 300.938C267.527 322.469 267.2 344.017 267.53 365.547C267.632 372.224 267.341 380.211 269.431 386.578C272.598 396.224 289.836 410.301 297.5 417.747C293.924 423.614 290.859 429.781 287.286 435.657L286.689 435.71C282.229 433.795 270.376 420.822 266.265 416.698C259.275 409.686 250.481 400.84 247.969 390.925C244.851 378.621 245.988 364.643 246.035 352.023L246.117 312.962L246.151 170.974L220.394 170.988C224.874 161.2 231.006 151.759 236.609 142.574C243.117 131.906 249.531 121.144 256.42 110.717Z"/>
	<path fill="#18C0EB" transform="scale(4.88281 4.88281)" d="M867.903 462.78C880.041 462.174 892.293 462.64 904.45 462.587C915.58 462.538 927.041 461.904 938.131 462.655C940.869 462.841 943.486 463.121 946.07 464.103C946.584 464.596 946.99 465.039 947.221 465.732C948.671 470.081 948.144 539.893 947.425 549.415C947.245 551.793 946.955 554.222 945.85 556.362C944.527 556.935 942.89 556.943 941.457 556.986C925.331 557.468 908.94 556.596 892.781 556.58C884.579 556.572 875.904 557.755 867.771 557.239C865.721 557.109 863.377 556.753 861.87 555.212C859.082 552.361 859.919 546.209 859.964 542.489L859.987 523.223C851.003 523.624 841.884 523.281 832.878 523.28L777.725 523.374C774.086 516.127 769.714 509.092 765.729 502.021L859.99 501.948C859.721 495.003 857.786 468.116 861.616 463.857C863.602 462.705 865.671 462.849 867.903 462.78ZM880.024 483.524C880.016 501.106 880.528 518.734 880.421 536.3C895.87 535.871 911.298 535.879 926.749 536.252C927.343 530.972 927.005 525.413 927.018 520.094C927.049 507.905 926.785 495.691 926.944 483.509L880.024 483.524Z"/>
	<path fill="#18C0EB" transform="scale(4.88281 4.88281)" d="M159.329 501.212C173.624 500.376 188.342 501.113 202.701 501.011L230.598 500.893C236.761 500.886 243.082 500.62 249.205 501.375C245.936 508.769 241.862 515.593 237.753 522.54L188.903 522.446C179.621 522.359 170.021 521.464 160.803 522.575C157.503 522.973 153.605 523.529 151.149 525.933C146.485 530.499 146.953 537.383 146.872 543.384C150.295 543.101 157.305 542.368 159.913 544.835C162.888 547.65 161.741 604.58 161.77 614.046C161.932 619.668 162.086 625.159 161.443 630.761C159.735 631.281 157.981 631.579 156.212 631.809C147.126 632.989 82.5617 634.186 78.2906 630.926C77.1613 627.909 76.9101 624.443 76.7127 621.245C76.0055 609.784 76.7526 598.225 76.7933 586.75C76.8322 575.798 76.1267 564.756 76.9224 553.825C77.1529 550.658 77.4576 547.144 78.7599 544.221C83.2375 541.915 119.108 543.268 126.602 543.429C125.83 531.896 126.87 521.868 134.745 512.808C141.199 505.381 149.657 501.941 159.329 501.212ZM97.452 564.085L97.4862 611.916C111.993 611.863 126.483 611.547 140.996 611.582L141.069 564.052L97.452 564.085Z"/>
	<path fill="#18C0EB" transform="scale(4.88281 4.88281)" d="M349.021 493.902C396.784 451.002 447.871 411.191 515.783 414.621C577.982 417.762 624.136 453.495 667.896 494.146C673.578 498.876 679.392 503.661 684.474 509.039C678.292 517.136 670.038 524.907 662.472 531.683C654.032 531.114 645.379 531.495 636.918 531.501L590.967 531.536C593.949 519.111 593.523 507.127 591.876 494.539C590.236 483.021 585.583 471.961 579.171 462.299C566.6 443.357 546.39 429.525 524.019 425.165C502.696 421.01 478.828 425.355 460.813 437.672C441.286 451.022 428.588 471.149 424.209 494.308C422.184 506.757 422.861 518.96 424.782 531.369C400.655 531.357 376.365 530.798 352.258 531.573C344.225 525.364 336.778 518.199 329.705 510.931C335.597 504.828 342.57 499.404 349.021 493.902Z"/>
	<path fill="#E3854A" transform="scale(4.88281 4.88281)" d="M591.876 494.539L637.747 494.359C647.777 494.359 657.88 494.608 667.896 494.146C673.578 498.876 679.392 503.661 684.474 509.039C678.292 517.136 670.038 524.907 662.472 531.683C654.032 531.114 645.379 531.495 636.918 531.501L590.967 531.536C593.949 519.111 593.523 507.127 591.876 494.539Z"/>
	<path fill="#E3854A" transform="scale(4.88281 4.88281)" d="M349.021 493.902C365.691 494.24 382.392 494.001 399.066 494.017C407.441 494.025 415.846 494.441 424.209 494.308C422.184 506.757 422.861 518.96 424.782 531.369C400.655 531.357 376.365 530.798 352.258 531.573C344.225 525.364 336.778 518.199 329.705 510.931C335.597 504.828 342.57 499.404 349.021 493.902Z"/>
	<path fill="#1B76D2" transform="scale(4.88281 4.88281)" d="M503.603 628.955C510.537 634.348 528.429 664.939 534.148 673.715C543.325 687.795 552.768 702.291 563.209 715.46C548.75 714.93 534.196 715.132 519.724 714.995C520.071 735.659 519.787 756.383 519.765 777.053L519.732 871.535C540.134 871.195 560.58 871.49 580.986 871.51C571.847 883.568 561.941 895.122 552.544 906.994L506.293 966.184L505.227 967.205C503.758 966.969 503.188 966.275 502.173 965.172C499.421 962.181 497.105 958.569 494.557 955.376L476.071 932.35C459.753 912.061 442.974 892.079 426.907 871.599C447.68 870.926 468.65 871.462 489.448 871.446L489.409 713.557L448.101 714.034C459.653 697.975 471.07 681.771 481.671 665.063C489.214 653.173 496.093 640.871 503.603 628.955Z"/>
	<path fill="#1B76D2" transform="scale(4.88281 4.88281)" d="M292.643 609.229C305.496 608.709 318.469 609.12 331.338 609.119L408.796 608.966C407.95 622.105 408.703 635.822 408.713 649.025L408.919 730.085L327.75 730.329L209.687 730.572C217.487 717.696 224.721 704.479 232.205 691.419C247.904 664.023 263.65 636.547 279.891 609.473C284.148 609.477 288.389 609.386 292.643 609.229Z"/>
	<path fill="#02030A" transform="scale(4.88281 4.88281)" d="M331.95 627.296C339.234 626.677 347.627 626.492 354.889 627.334C356.655 627.539 358.61 627.69 359.788 629.162C360.99 634.306 358.505 641.543 357.037 646.499C349.781 645.686 333.292 643.559 327.592 648.827C326.492 649.844 326.39 650.608 326.241 652.037C328.954 659.298 346.286 663.388 353.154 666.946C353.915 667.341 354.69 667.712 355.395 668.204C359.378 670.985 361.282 677.395 361.969 682.011C363.056 689.312 361.783 697.251 357.192 703.202C352.014 709.916 345.051 711.55 337.125 712.484L307.505 712.5C307.462 706.157 307.621 699.944 308.182 693.625L310.905 693.894C316.446 694.408 335.992 695.776 340.021 691.985C341.171 690.903 341.896 688.763 341.673 687.239C340.747 680.922 327.998 678.387 323.114 676.371C319.961 675.069 316.891 673.304 314.296 671.086C309.72 667.174 306.9 661.829 306.479 655.802C305.956 648.314 307.358 640.802 312.56 635.112C317.804 629.377 324.499 627.695 331.95 627.296Z"/>
	<path fill="#1B76D2" transform="scale(4.88281 4.88281)" d="M612.439 609.242C652.857 609.07 693.322 608.801 733.737 609.192C736.936 614.048 739.681 619.391 742.587 624.438L759.691 654.199L802.839 728.015L787.75 728.051L598.481 728.655L598.069 609.488L612.439 609.242Z"/>
	<path fill="#02030A" transform="scale(4.88281 4.88281)" d="M646.859 630.491C662.553 630.438 691.271 627.393 703.066 638.971C712.137 647.875 710.242 662.158 710.29 673.723C710.338 685.127 711.092 696.017 702.386 704.793C691.936 713.038 678.488 712.358 665.922 712.32L647.044 712.326C646.302 685.106 646.105 657.71 646.859 630.491Z"/>
	<path fill="#1B76D2" transform="scale(4.88281 4.88281)" d="M671.114 646.687C676.352 646.854 680.307 647.3 684.871 650.118C689.163 658.121 689.507 679.354 687.063 688C686.201 691.049 684.93 692.228 682.207 693.724C677.447 695.728 673.043 695.66 667.994 695.8C668.005 679.821 667.354 663.649 667.776 647.704C668.826 646.683 669.705 646.861 671.114 646.687Z"/>
	<path fill="#1B76D2" transform="scale(4.88281 4.88281)" d="M507.66 222.241C511.895 225.983 522.619 245.935 526.038 251.737L574.645 335.535C595.871 372.2 617.787 408.477 639.524 444.84C630.205 437.756 620.975 430.396 611.084 424.121C580.749 404.877 545.151 394 509.226 393.417C459.469 393.363 415.306 413.372 376.639 443.626C386.157 426.279 396.796 409.416 406.957 392.427L449.485 320.665C468.945 287.933 487.021 254.249 507.66 222.241Z"/>
	<path fill="#02030A" transform="scale(4.88281 4.88281)" d="M424.209 494.308C428.588 471.149 441.286 451.022 460.813 437.672C478.828 425.355 502.696 421.01 524.019 425.165C546.39 429.525 566.6 443.357 579.171 462.299C585.583 471.961 590.236 483.021 591.876 494.539C593.523 507.127 593.949 519.111 590.967 531.536C589.19 537.795 586.825 543.898 583.909 549.717C573.628 570.239 554.975 586.451 533.145 593.569C512.507 600.298 489.767 598.652 470.439 588.73C445.172 575.759 433.313 557.678 424.782 531.369C422.861 518.96 422.184 506.757 424.209 494.308Z"/>
	<path fill="#18C0EB" transform="scale(4.88281 4.88281)" d="M503.186 444.682C518.094 442.986 534.498 448.007 546.403 457.008C560.455 467.633 570.144 483.826 572.462 501.32C574.854 519.374 570.035 537.016 558.925 551.416C547.926 565.672 531.757 573.641 514.126 575.955C497.726 577.253 481.943 573.026 468.818 562.947C455.183 552.475 445.673 536.364 443.467 519.268C441.226 501.901 446.129 483.232 456.944 469.421C468.63 454.496 484.624 446.947 503.186 444.682Z"/>
	<path fill="#02030A" transform="scale(4.88281 4.88281)" d="M506.034 474.701C513.688 474.3 521.797 476.531 528.145 480.841C535.836 486.063 540.934 494.678 542.605 503.756C544.357 513.268 542.128 523.008 536.572 530.908C530.021 540.223 521.537 544.185 510.584 546.156C502.43 546.656 494.091 544.58 487.35 539.867C479.657 534.488 474.501 526.047 472.985 516.818C471.359 506.92 473.906 496.824 479.829 488.755C486.283 479.963 495.563 476.262 506.034 474.701Z"/>
	<path fill="#EDEDEF" transform="scale(4.88281 4.88281)" d="M508.371 501.004C508.924 501.13 509.475 501.266 510.03 501.385C510.742 501.538 511.465 501.619 512.145 501.904C514.201 502.767 516.04 504.847 516.835 506.906C517.67 509.07 517.58 511.508 516.612 513.613C515.068 516.97 512.353 518.297 509.029 519.443C508.009 519.221 506.969 518.972 505.977 518.644C503.497 517.822 501.342 515.946 500.302 513.534C499.39 511.415 499.51 509.016 500.491 506.943C502.126 503.484 504.918 502.172 508.371 501.004Z"/>
	<path fill="#1B76D2" transform="scale(4.88281 4.88281)" d="M506.293 85.4053C511.146 91.3906 514.941 99.2888 518.887 105.967L544.875 150.374L635.132 305.425L927.356 800.963L842.107 801.102C827.437 801.106 812.105 800.165 797.507 801.379L797.446 774.955C824.748 774.957 852.113 775.333 879.406 774.783C861.588 741.899 841.57 710.195 822.455 678.058L724.205 511.838L567.173 241.95C546.97 207.261 527.267 172.222 506.601 137.809C493.726 158.333 481.939 179.615 469.791 200.581L412.131 299.747L217.36 632.139L160.016 730.154C151.385 744.938 141.497 759.539 133.922 774.865C172.066 775.701 210.418 774.907 248.583 774.91L475.531 774.946L475.541 801.08L88.0174 801.032C93.5541 787.556 102.908 774.584 110.361 762.062L152.085 691.409L300.06 438.937L447.765 184.125L479.886 128.507C488.051 114.093 495.83 98.3356 506.293 85.4053Z"/>
</svg>
