<?xml version="1.0" encoding="utf-8" ?>
<svg xmlns="http://www.w3.org/2000/svg" xmlns:xlink="http://www.w3.org/1999/xlink" width="5000" height="5000">
	<path fill="#EDEDEF" transform="scale(2 2)" d="M819.634 1361.33C829.217 1377.06 836.564 1387.75 852.335 1397.76C835.705 1408 828.888 1418.95 821.57 1436.44C806.67 1420.15 818.015 1412.95 788.182 1400.62C803.371 1389.73 812.618 1378.84 819.634 1361.33Z"/>
	<path fill="#EDEDEF" transform="scale(2 2)" d="M737.58 1316.48C746.48 1323.82 746.514 1341.67 751.51 1351.64C757.857 1364.3 770.568 1368.99 783.165 1373.09C770.777 1379.57 755.245 1388.61 749.785 1402.18C747.306 1408.34 746.22 1415.23 744.265 1421.6C742.76 1426.5 741.599 1430.89 738.307 1434.92C736.379 1428.31 734.541 1421.58 732.086 1415.14C724.021 1393.98 710.761 1383.44 690.578 1374.59C695.752 1372.47 701.246 1370.47 706.118 1367.72C726.528 1356.24 731.695 1337.48 737.58 1316.48Z"/>
	<path fill="#18BFEA" transform="scale(2 2)" d="M859.985 1297.72C919.024 1296.58 977.989 1297.06 1037.03 1297.4C1060.22 1362.68 1088.72 1408.97 1153.37 1439.72C1201.62 1462.67 1257.88 1465.04 1308.07 1446.83C1361.84 1427.33 1405.51 1385.99 1429.35 1334.19C1434.68 1322.6 1439.58 1310.15 1442.56 1297.72C1500.68 1297.65 1559.4 1295.77 1617.46 1297.91C1514.89 1388.53 1407.03 1472.73 1265.29 1482.41C1106.96 1493.23 973.082 1396.88 859.985 1297.72Z"/>
	<path fill="#18BFEA" transform="scale(2 2)" d="M852.126 1205.9C964.84 1102.33 1095.48 1005.27 1256.23 1012.14C1406.84 1018.58 1523.77 1107.78 1630.24 1206.15C1644.37 1217.89 1658.29 1229.73 1671.26 1242.76C1654.66 1262.73 1636.91 1280.71 1617.46 1297.91C1559.4 1295.77 1500.68 1297.65 1442.56 1297.72C1450.23 1268.01 1448.29 1237.51 1444.96 1207.36C1440.36 1179.72 1430.45 1153.89 1415.08 1130.43C1384.43 1083.63 1335.68 1049.5 1280.69 1038.37C1228.37 1027.78 1170.86 1037.98 1126.3 1067.69C1077.54 1100.21 1047.31 1149.81 1035.66 1206.71C1031.8 1237.73 1032.88 1266.56 1037.03 1297.4C977.989 1297.06 919.024 1296.58 859.985 1297.72C840.105 1282.88 822.421 1264.91 804.898 1247.44C819.444 1232.4 836.039 1219.23 852.126 1205.9Z"/>
	<path fill="#E28449" transform="scale(2 2)" d="M1630.24 1206.15C1644.37 1217.89 1658.29 1229.73 1671.26 1242.76C1654.66 1262.73 1636.91 1280.71 1617.46 1297.91C1559.4 1295.77 1500.68 1297.65 1442.56 1297.72C1450.23 1268.01 1448.29 1237.51 1444.96 1207.36C1505.88 1207.09 1569.8 1209.3 1630.24 1206.15Z"/>
	<path fill="#E28449" transform="scale(2 2)" d="M804.898 1247.44C819.444 1232.4 836.039 1219.23 852.126 1205.9L980.035 1206.2C998.553 1206.24 1017.16 1207.15 1035.66 1206.71C1031.8 1237.73 1032.88 1266.56 1037.03 1297.4C977.989 1297.06 919.024 1296.58 859.985 1297.72C840.105 1282.88 822.421 1264.91 804.898 1247.44Z"/>
	<path transform="scale(2 2)" d="M1035.66 1206.71C1047.31 1149.81 1077.54 1100.21 1126.3 1067.69C1170.86 1037.98 1228.37 1027.78 1280.69 1038.37C1335.68 1049.5 1384.43 1083.63 1415.08 1130.43C1430.45 1153.89 1440.36 1179.72 1444.96 1207.36C1448.29 1237.51 1450.23 1268.01 1442.56 1297.72C1439.58 1310.15 1434.68 1322.6 1429.35 1334.19C1405.51 1385.99 1361.84 1427.33 1308.07 1446.83C1257.88 1465.04 1201.62 1462.67 1153.37 1439.72C1088.72 1408.97 1060.22 1362.68 1037.03 1297.4C1032.88 1266.56 1031.8 1237.73 1035.66 1206.71Z"/>
	<path fill="#18BFEA" transform="scale(2 2)" d="M1228.06 1085.65C1264.55 1082.13 1301.23 1092.26 1331.07 1113.58C1365.59 1138.22 1389.95 1176.94 1396.93 1218.8C1404.16 1262.18 1393.51 1306.61 1367.68 1342.17C1339.93 1380.4 1300.25 1399.02 1254.6 1406.39C1216.33 1408.77 1178.63 1399.65 1147.51 1376.7C1113.42 1351.55 1089.39 1312.8 1083.06 1270.81C1076.66 1228.46 1087.86 1183.28 1113.36 1148.87C1141.71 1110.6 1181.89 1092.3 1228.06 1085.65Z"/>
	<path transform="scale(2 2)" d="M1238.17 1158.84C1259.09 1159.31 1279.12 1164.98 1295.32 1178.65C1313.02 1193.59 1323.76 1215.67 1325.56 1238.68C1327.39 1262.01 1319.58 1285.56 1304.39 1303.33C1289.52 1320.72 1266.92 1331.34 1244.2 1333.19C1224.36 1333.65 1205.35 1328.93 1189.05 1317.3C1170.43 1304 1158.24 1283.22 1154.8 1260.69C1151.18 1237 1157.59 1211.99 1171.97 1192.85C1188.48 1170.88 1211.89 1162.63 1238.17 1158.84Z"/>
	<path fill="#EDEDEF" transform="scale(2 2)" d="M1240.44 1223.01C1244.88 1223.59 1249.34 1225.14 1253.66 1226.34C1256.43 1229.24 1259.15 1232.13 1260.94 1235.77C1263.41 1240.8 1264.09 1246.78 1262.13 1252.1C1258.84 1261.02 1251.32 1264.83 1243.2 1268.41C1240.52 1267.8 1237.78 1267.2 1235.17 1266.3C1229.33 1264.27 1223.71 1259.59 1221.34 1253.8C1219.37 1248.99 1219.59 1243.85 1221.54 1239.08C1225.18 1230.16 1231.99 1226.58 1240.44 1223.01Z"/>
</svg>
