<?xml version="1.0" encoding="utf-8" ?>
<svg xmlns="http://www.w3.org/2000/svg" xmlns:xlink="http://www.w3.org/1999/xlink" width="5000" height="5000">
	<path fill="#19AEF8" transform="scale(4.88281 4.88281)" d="M460.37 47.0538L511.977 47.0187C511.316 64.2738 511.805 81.6275 511.84 98.8968L511.727 178.378L511.636 208.619C511.617 213.661 511.859 218.84 511.532 223.858C511.034 241.422 511.092 259.093 511.19 276.664C511.231 284.029 510.533 292.416 511.735 299.648C513.372 300.128 514.862 300.3 516.561 300.421C455.347 301.454 404.231 320.406 360.34 363.867C357.658 360.625 308.661 309.809 306.427 308.583C298.806 316.642 291.174 324.503 284.314 333.25C252.322 374.041 231.659 424.954 224.823 476.266C223.242 488.128 222.714 499.912 222.389 511.861C188.352 511.229 154.191 511.849 120.14 511.841L74.8407 511.828C65.6218 511.823 56.3302 511.582 47.1218 512.031C47.4475 493.465 47.3516 474.873 47.0009 456.308C76.934 449.187 107.233 443.267 137.304 436.722C143.614 388.358 167.31 339.558 194.122 299.377C185.162 284.92 177.076 269.866 168.402 255.228C161.521 243.615 153.049 232.038 147.968 219.49C161.328 204.705 175.883 191.101 189.915 176.969C200.248 166.562 209.954 155.333 221.083 145.763C247.04 162.603 273.446 178.469 299.853 194.562C326.271 173.238 361.459 157.128 393.645 146.945C406.838 142.771 420.283 139.545 433.739 136.352C437.1 126.255 439.92 115.886 442.986 105.69L460.37 47.0538Z"/>
	<path fill="#3974CB" transform="scale(4.88281 4.88281)" d="M306.427 308.583C306.488 308.476 306.527 308.353 306.611 308.263C310.395 304.19 315.302 300.415 319.454 296.67C363.302 257.113 420.682 233.235 479.003 226.035C489.728 224.711 500.717 223.383 511.532 223.858C511.034 241.422 511.092 259.093 511.19 276.664C511.231 284.029 510.533 292.416 511.735 299.648C513.372 300.128 514.862 300.3 516.561 300.421C455.347 301.454 404.231 320.406 360.34 363.867C357.658 360.625 308.661 309.809 306.427 308.583Z"/>
	<path fill="#3974CB" transform="scale(4.88281 4.88281)" d="M511.977 47.0187C529.087 47.0179 546.418 46.4233 563.502 47.1539C567.863 62.7375 572.879 78.1303 577.481 93.6438C581.832 108.308 585.772 123.209 590.584 137.72C638.263 148.925 684.527 164.877 725.521 192.279C751.933 177.04 776.655 159.348 803.6 144.925L846.537 188.047C856.814 198.473 866.914 209.161 877.69 219.078C861.898 245.054 846.106 271.056 829.916 296.786C846.966 324.349 862.092 352.138 872.718 382.879C878.764 400.371 883.253 418.316 887.698 436.266L975.466 458.811L975.395 512.146C967.505 511.041 958.62 511.746 950.631 511.702L898.994 511.462L830.408 510.98C821.551 510.973 809.497 510.019 801.075 511.422L800.936 511.023C792.676 508.807 782.06 510.356 773.545 510.338L723.976 510.093C723.948 502.059 723.03 493.798 722.003 485.837C716.138 440.375 696.413 398.295 664.524 365.277C626.432 325.835 571.512 301.385 516.561 300.421C514.862 300.3 513.372 300.128 511.735 299.648C510.533 292.416 511.231 284.029 511.19 276.664C511.092 259.093 511.034 241.422 511.532 223.858C511.859 218.84 511.617 213.661 511.636 208.619L511.727 178.378L511.84 98.8968C511.805 81.6275 511.316 64.2738 511.977 47.0187Z"/>
	<path fill="#FEFEFE" transform="scale(4.88281 4.88281)" d="M511.532 223.858C523.867 222.927 536.885 224.563 549.098 226.251C605.638 234.064 658.783 258.158 702.032 295.39C760.46 345.688 795.116 418.092 800.77 494.649C801.17 500.063 801.645 505.621 800.936 511.023C792.676 508.807 782.06 510.356 773.545 510.338L723.976 510.093C723.948 502.059 723.03 493.798 722.003 485.837C716.138 440.375 696.413 398.295 664.524 365.277C626.432 325.835 571.512 301.385 516.561 300.421C514.862 300.3 513.372 300.128 511.735 299.648C510.533 292.416 511.231 284.029 511.19 276.664C511.092 259.093 511.034 241.422 511.532 223.858Z"/>
	<path fill="#002558" transform="scale(4.88281 4.88281)" d="M516.561 300.421C571.512 301.385 626.432 325.835 664.524 365.277C696.413 398.295 716.138 440.375 722.003 485.837C723.03 493.798 723.948 502.059 723.976 510.093L773.545 510.338C782.06 510.356 792.676 508.807 800.936 511.023L801.075 511.422C809.497 510.019 821.551 510.973 830.408 510.98L898.994 511.462L950.631 511.702C958.62 511.746 967.505 511.041 975.395 512.146C974.734 529.417 975.547 546.782 975.21 564.074C965.862 567.438 955.983 569.935 946.458 572.798L888.136 590.202C885.546 601.553 883.022 612.901 879.675 624.059C868.867 660.082 852.013 693.872 831.818 725.507C846.284 752.59 862.184 778.853 877.533 805.442C852.779 829.149 827.517 853.11 804.597 878.607L724.526 832.937C681.005 859.35 639.926 876.533 590.284 887.91C582.005 916.746 572.11 945.161 563.598 973.943C529.217 973.587 494.756 973.636 460.375 973.965C458.262 965.668 455.545 957.458 453.11 949.246L434.528 888.275C428.859 887.208 423.157 885.555 417.56 884.134C375.761 873.522 335.859 855.738 299.843 832.04C287.689 839.238 275.281 846.004 263.012 853.005C248.186 861.467 233.405 870.141 218.34 878.168C194.226 853.362 168.418 830.01 145.175 804.357C149.573 795.643 154.996 787.217 159.934 778.774L191.902 724.997C173.939 696.052 157.742 665.49 147.258 632.975C142.682 618.781 139.524 604.164 135.481 589.809C126.864 588.145 118.041 585.104 109.57 582.71L47.2119 564.498L47.1218 512.031C56.3302 511.582 65.6218 511.823 74.8407 511.828L120.14 511.841C154.191 511.849 188.352 511.229 222.389 511.861C222.714 499.912 223.242 488.128 224.823 476.266C231.659 424.954 252.322 374.041 284.314 333.25C291.174 324.503 298.806 316.642 306.427 308.583C308.661 309.809 357.658 360.625 360.34 363.867C404.231 320.406 455.347 301.454 516.561 300.421Z"/>
	<path fill="#19AEF8" transform="scale(4.88281 4.88281)" d="M723.976 510.093L773.545 510.338C782.06 510.356 792.676 508.807 800.936 511.023L801.075 511.422C799.891 572.669 782.909 631.049 746.501 680.81C740.461 689.065 734.484 697.759 727.231 704.992C722.51 700.445 718.161 695.447 713.573 690.756C704.209 681.181 694.663 671.765 685.017 662.473C680.596 658.214 676.297 653.752 671.579 649.819C706.624 612.288 723.571 560.826 723.976 510.093Z"/>
	<path fill="#19AEF8" transform="scale(4.88281 4.88281)" d="M355.709 652.778C390.615 686.609 429.863 711.774 478.759 719.098C489.419 720.694 500.231 721.125 510.991 721.478L510.993 801.041C446.764 800.9 382.98 777.957 332.498 738.411C321.071 729.459 310.641 719.445 300.403 709.179C309.867 700.412 318.455 690.417 327.583 681.257C336.294 672.516 348.227 662.083 355.709 652.778Z"/>
	<path fill="#FEFEFE" transform="scale(4.88281 4.88281)" d="M671.579 649.819C676.297 653.752 680.596 658.214 685.017 662.473C694.663 671.765 704.209 681.181 713.573 690.756C718.161 695.447 722.51 700.445 727.231 704.992C718.752 713.683 710.237 722.327 700.988 730.211C648.849 774.656 584.146 800.078 515.501 801.027C513.998 801.048 512.496 801.053 510.993 801.041L510.991 721.478C523.329 720.536 535.375 719.963 547.636 718.003C598.591 709.859 636.397 686.689 671.579 649.819Z"/>
	<path fill="#002558" transform="scale(4.88281 4.88281)" d="M516.561 300.421C571.512 301.385 626.432 325.835 664.524 365.277C696.413 398.295 716.138 440.375 722.003 485.837C723.03 493.798 723.948 502.059 723.976 510.093C723.571 560.826 706.624 612.288 671.579 649.819C636.397 686.689 598.591 709.859 547.636 718.003C535.375 719.963 523.329 720.536 510.991 721.478C500.231 721.125 489.419 720.694 478.759 719.098C429.863 711.774 390.615 686.609 355.709 652.778C348.227 662.083 336.294 672.516 327.583 681.257C318.455 690.417 309.867 700.412 300.403 709.179C290.591 697.333 280.708 685.891 272.081 673.101C240.508 626.293 222.516 568.3 222.389 511.861C222.714 499.912 223.242 488.128 224.823 476.266C231.659 424.954 252.322 374.041 284.314 333.25C291.174 324.503 298.806 316.642 306.427 308.583C308.661 309.809 357.658 360.625 360.34 363.867C404.231 320.406 455.347 301.454 516.561 300.421Z"/>
	<path fill="#58BDE5" transform="scale(4.88281 4.88281)" d="M306.427 308.583C308.661 309.809 357.658 360.625 360.34 363.867C352.593 372.282 345.271 380.787 338.737 390.196C313.172 427.012 299.442 472.706 301.293 517.554C302.855 555.424 313.515 592.94 334.517 624.755C341.126 634.765 348.71 643.237 355.709 652.778C348.227 662.083 336.294 672.516 327.583 681.257C318.455 690.417 309.867 700.412 300.403 709.179C290.591 697.333 280.708 685.891 272.081 673.101C240.508 626.293 222.516 568.3 222.389 511.861C222.714 499.912 223.242 488.128 224.823 476.266C231.659 424.954 252.322 374.041 284.314 333.25C291.174 324.503 298.806 316.642 306.427 308.583Z"/>
	<path fill="#21B486" transform="scale(4.88281 4.88281)" d="M500.941 340.796C542.893 336.582 588.627 353.384 621.146 379.388C655.74 407.051 677.656 448.678 682.509 492.453C687.451 537.035 673.84 583.466 645.672 618.385C614.289 657.289 571.654 675.854 522.887 680.947C478.08 681.99 436.629 669.378 401.548 640.924C367.437 613.256 346.209 572.322 341.792 528.778C337.181 483.328 350.342 437.736 379.381 402.309C410.002 364.952 453.506 345.454 500.941 340.796Z"/>
	<path transform="scale(4.88281 4.88281)" d="M388.492 452.239C398.123 452.208 438.483 450.593 443.998 454.589C446.889 456.684 449.203 460.282 449.585 463.851C450.012 467.837 449.433 472.364 446.643 475.439C441.855 480.718 432.91 479.865 426.394 480.007C417.501 479.946 408.618 480.262 399.715 480.132C393.17 480.036 370.92 481.109 366.774 476.442C363.722 473.007 363.847 466.497 364.464 462.202C365.11 457.706 367.302 455.414 370.767 452.765C376.607 452.269 382.627 452.369 388.492 452.239Z"/>
	<path transform="scale(4.88281 4.88281)" d="M377.833 530.723C387.25 529.934 396.941 531.087 406.394 531.06C416.155 531.032 426.24 529.807 435.95 530.841C439.104 531.176 442.353 531.895 445.085 533.564C447.71 535.169 449.519 537.573 450.1 540.617C450.834 544.461 449.658 549.689 447.363 552.854C444.874 556.287 441.916 557.428 437.878 558.129C427.037 559.038 415.883 558.481 405.003 558.515C395.121 558.546 385.04 559.167 375.184 558.38C372.155 558.138 368.733 557.988 366.715 555.418C363.658 551.521 363.512 544.945 364.093 540.193C364.612 535.945 367.1 533.885 370.341 531.484C372.815 531.107 375.34 530.952 377.833 530.723Z"/>
	<path fill="#FEFEFE" transform="scale(4.88281 4.88281)" d="M585.028 434.581C588.97 435.437 592.046 437.218 595.031 439.918C608.046 451.691 620.149 464.94 632.584 477.347C641.36 486.103 651.483 494.372 659.021 504.23C660.597 506.291 661.934 509.054 661.957 511.701C661.982 514.748 659.541 518.055 657.765 520.405C654.818 524.306 650.748 527.551 647.347 531.066C638.686 540.018 630.052 548.951 621.231 557.75C610.711 568.318 600.436 579.843 588.684 589.014C585.721 588.962 583.051 588.63 580.151 588.022C578.418 586.647 576.938 585.07 575.408 583.48C573.64 576.23 574.531 567.364 574.536 559.902L574.538 526.052L574.519 474.852C574.518 465.218 574.138 455.409 574.766 445.801C574.926 443.363 575.243 441.754 576.572 439.687C578.644 436.464 581.411 435.33 585.028 434.581Z"/>
	<path fill="#21B486" transform="scale(4.88281 4.88281)" d="M598.192 477.815C602.707 480.697 628.416 507.076 631.689 511.609L614.989 528.25L598.194 545.019C599.025 523.276 598.551 499.678 598.192 477.815Z"/>
	<path transform="scale(4.88281 4.88281)" d="M543.619 399.582C546.566 399.503 549.399 400.447 551.865 402.029C554.825 403.927 557.248 406.825 557.941 410.334C558.654 413.944 557.311 417.274 555.645 420.411C550.199 430.668 541.948 439.938 534.995 449.238C521.621 467.125 507.899 485.138 495.42 503.664C503.929 503.284 544.821 502.096 551.076 505.615C555.9 508.329 557.296 513.063 558.796 518.004C557.799 521.345 556.421 523.992 554.538 526.923C549.794 534.305 544.245 541.187 538.996 548.211L518.624 576.013C513.005 583.711 507.343 591.381 501.855 599.173C497.72 605.046 493.774 611.24 489.158 616.745C486.992 619.328 484.83 621.186 481.967 622.953C477.832 623.934 473.065 623.008 469.516 620.704C466.654 618.846 464.462 615.977 463.887 612.569C463.445 609.947 463.919 607.409 465.078 605.04C470.082 594.812 479.747 583.767 486.685 574.423C497.7 559.589 508.509 544.625 519.149 529.52L490.639 529.595C485.142 529.629 479.19 530.11 473.753 529.342C470.795 528.924 467.826 528.188 465.251 526.62C462.301 524.824 460.439 521.31 459.752 518.001C458.712 512.983 460.2 507.755 462.883 503.503C468.132 495.182 474.18 487.289 479.951 479.319L510.666 437.304L526.924 414.966C529.852 410.944 532.763 406.312 536.239 402.76C538.344 400.609 540.803 400.222 543.619 399.582Z"/>
</svg>
