<?xml version="1.0" encoding="utf-8" ?>
<svg xmlns="http://www.w3.org/2000/svg" xmlns:xlink="http://www.w3.org/1999/xlink" width="5000" height="5000">
	<path fill="#FEFEFE" transform="scale(4.88281 4.88281)" d="M854.848 513.272C856.267 513.124 857.519 512.886 858.888 513.422C860.252 515.43 859.722 518.414 859.665 520.821C857.132 520.586 854.525 520.658 851.98 520.611C850.868 520.732 850.139 520.837 849.083 520.423C848.477 519.521 848.313 519.022 848.351 517.932L848.523 513.314L854.848 513.272Z"/>
	<path fill="#FEFEFE" transform="scale(4.88281 4.88281)" d="M152.494 513.932L166.532 513.988C166.557 516.344 166.494 518.662 166.341 521.014L152.492 521.352L152.494 513.932Z"/>
	<path fill="#FEFEFE" transform="scale(4.88281 4.88281)" d="M226.487 204.75C236.076 204.118 246.001 204.596 255.624 204.587C266.166 204.576 278.115 203.554 288.446 205.418C290.309 205.754 292.078 206.122 293.18 207.776C293.021 208.909 292.913 209.044 292.122 209.827C290.491 211.441 287.584 212.257 285.342 212.16C282.437 212.033 279.534 212.047 276.625 212.034C264.551 212.149 252.47 211.654 240.389 211.691C231.862 211.718 222.17 212.958 213.774 211.574C211.955 211.274 211.451 210.709 210.455 209.212C210.298 207.864 210.253 207.237 210.875 206.014C214.414 203.888 222.283 204.888 226.487 204.75Z"/>
	<path fill="#FEFEFE" transform="scale(4.88281 4.88281)" d="M193.422 296.237C204.736 296.157 216.056 296.562 227.373 296.456C234.991 296.386 247.945 295.277 255.015 296.439C256.991 296.764 257.914 297.386 259.048 299.016C259.221 300.334 259.17 300.991 258.691 302.232C257.839 303.04 257.143 303.432 255.962 303.606C250.548 304.403 241.129 303.611 235.25 303.601C225.879 303.569 216.503 303.506 207.133 303.624C200.037 303.713 177.513 304.845 172.205 303.395C170.843 303.023 170.678 302.602 169.932 301.5C169.671 299.622 170.353 298.225 171.021 296.494C178.493 296.501 185.953 296.489 193.422 296.237Z"/>
	<path fill="#3974CB" transform="scale(4.88281 4.88281)" d="M91.799 332.909C92.6892 333.126 93.7091 333.302 94.4471 333.893C98.5451 337.172 97.0766 356.519 97.0364 362.057C100.093 362.04 103.152 361.943 106.209 361.897C111.303 361.819 121.105 360.77 124.929 364.481C125.252 365.774 125.227 365.795 124.685 367.018C119.439 371.447 103.716 369.291 97.0526 369.021C97.4646 377.103 99.3935 390.946 94.0402 397.48C93.0161 397.105 91.9226 396.708 91.2431 395.794C88.655 392.312 89.9103 374.392 89.9708 369.01C82.2728 368.962 74.5696 370.035 66.9106 368.728C64.8215 368.372 62.7499 368.016 61.4551 366.184C61.4271 364.762 61.5089 364.551 62.2137 363.309C68.1004 359.132 79.4166 363.101 86.4091 361.958C87.6768 361.751 89.3065 361.214 89.8753 359.937C91.8456 355.514 86.5991 340.374 91.799 332.909Z"/>
	<path fill="#D78A58" transform="scale(4.88281 4.88281)" d="M89.0106 600.143C89.9414 600.258 90.944 600.41 91.701 601.021C95.7888 604.32 94.1706 626.506 94.0628 632.028C100.241 631.991 117.372 630.358 122.23 632.504C123.491 633.061 123.862 633.616 124.403 634.842C124.246 636.206 124.241 636.786 123.092 637.732C119.426 640.75 99.6363 639.251 94.1347 639.099C94.3472 647.149 97.1857 661.913 91.428 668.258C90.6013 668.057 89.8073 667.898 89.1357 667.33C85.553 664.296 87.0118 644.367 87.1063 639.058C78.6827 639.192 69.6819 639.936 61.3253 639.056C59.4386 638.858 57.6943 638.675 56.6336 636.871C55.9399 635.691 56.1755 635.178 56.6167 634.038C62.037 629.86 80.2221 631.696 87.1107 632.051C86.8888 622.65 84.4863 608.708 89.0106 600.143Z"/>
	<path fill="#58BDE7" transform="scale(4.88281 4.88281)" d="M652.677 66.8206C653.961 67.1315 655.36 67.3713 656.297 68.3867C660.946 73.424 658.827 89.378 658.644 95.7721C664.304 95.3791 680.058 94.0468 684.731 96.265C686.325 97.0216 687.105 97.8706 687.726 99.5348C687.594 100.357 687.68 100.702 687.071 101.346C683.497 105.121 664.409 103.47 658.586 103.348C658.793 109.709 660.291 124.878 658.056 130.422C657.668 131.386 656.88 132.232 656.196 133C655.202 132.732 654.023 132.386 653.206 131.746C649.065 128.503 651.103 108.207 651.25 103.002C644.926 103.086 630.17 104.362 624.807 102.194C623.285 101.579 622.706 100.821 622.086 99.3494C622.198 98.6493 622.146 97.9924 622.643 97.4439C625.828 93.9321 645.506 95.4957 651.046 95.5795C650.888 85.9019 649.519 76.1665 652.677 66.8206Z"/>
	<path fill="#3974CB" transform="scale(4.88281 4.88281)" d="M949.965 607.669C951.082 607.864 952.512 608.017 953.385 608.798C957.335 612.331 955.672 635.35 955.591 641.174C963.479 641.273 975.979 639.642 983.312 641.723C984.759 642.133 985.426 643.117 986.165 644.328C986.137 645.109 986.317 645.469 985.714 646.062C981.689 650.023 961.658 648.575 955.544 648.507C955.663 655.655 955.951 662.856 955.809 670.001C955.724 674.299 955.673 677.599 952.411 680.742C951.609 680.538 950.87 680.369 950.224 679.807C946.584 676.639 947.957 653.932 948 648.491C942.283 648.511 921.396 650.102 917.868 647.262C916.776 646.384 916.79 646.06 916.622 644.756C916.904 643.946 917.116 643.365 917.825 642.813C922.205 639.406 942.106 641.055 947.88 641.173C947.546 631.179 945.407 616.835 949.965 607.669Z"/>
	<path fill="#FEFEFE" transform="scale(4.88281 4.88281)" d="M754.806 365.159C758.517 365.346 761.661 365.889 764.982 367.72C769.6 370.266 772.934 374.749 774.156 379.866C775.449 385.278 774.358 391.157 771.268 395.776C767.699 401.11 762.699 403.304 756.65 404.537C752.242 404.579 747.783 403.372 744.188 400.769C739.815 397.602 737.136 392.689 736.448 387.369C735.772 382.135 737.02 376.781 740.304 372.603C744.09 367.787 748.948 365.978 754.806 365.159ZM752.531 372.563C748.71 374.442 745.783 376.456 744.256 380.602C743.092 383.763 743.326 387.38 744.852 390.38C746.289 393.205 748.811 395.347 751.836 396.308C753.92 396.97 756.274 396.949 758.416 396.606C762.31 394.797 765.502 392.396 766.996 388.208C768.016 385.351 767.919 382.101 766.608 379.353C765.125 376.245 762.3 374.001 759.008 373.051C756.871 372.434 754.73 372.411 752.531 372.563Z"/>
	<path fill="#FEFEFE" transform="scale(4.88281 4.88281)" d="M629.283 909.187C633.252 908.637 638.625 909.907 642.086 911.77C647.667 914.776 651.533 920.293 653.098 926.373C654.713 932.65 653.582 939.341 650.241 944.874C646.31 951.385 640.541 954.1 633.441 955.741C627.166 955.635 621.446 954.427 616.291 950.638C611.506 947.121 608.403 941.873 607.61 935.992C606.736 929.511 608.585 922.501 612.71 917.404C616.94 912.178 622.792 909.943 629.283 909.187ZM629.488 916.106C624.603 917.065 620.591 918.819 617.746 923.101C615.199 926.935 614.299 931.806 615.402 936.287C616.426 940.452 619.133 944.096 622.851 946.24C625.761 947.917 629.279 948.58 632.616 948.451C637.598 947.21 641.712 945.429 644.552 940.869C646.887 937.12 647.608 932.43 646.568 928.142C645.546 923.929 642.806 920.339 638.993 918.271C636.07 916.687 632.788 916.086 629.488 916.106Z"/>
	<path fill="#FEFEFE" transform="scale(4.88281 4.88281)" d="M365.952 121.537C371.716 121.358 376.561 121.694 381.655 124.8C386.904 128.001 390.469 133.095 391.921 139.048C393.41 145.15 392.579 152.011 389.285 157.404C385.209 164.073 378.939 166.712 371.684 168.408C367.324 168.238 363.206 167.882 359.164 166.086C353.331 163.494 349.04 158.549 346.944 152.554C344.835 146.523 345.169 140.217 348.148 134.545C352.045 127.125 358.336 123.948 365.952 121.537ZM367.264 128.687C362.305 129.775 357.947 131.925 355.206 136.39C352.92 140.115 352.333 144.708 353.42 148.921C354.539 153.256 357.321 156.994 361.211 159.223C364.386 161.043 367.913 161.602 371.53 161.533C376.561 159.896 380.604 157.845 383.247 152.958C385.35 149.07 385.77 144.406 384.503 140.18C383.257 136.024 380.41 132.62 376.542 130.658C373.535 129.132 370.562 128.833 367.264 128.687Z"/>
	<path fill="#58BDE7" transform="scale(4.88281 4.88281)" d="M104.36 250.173C117.825 249.486 131.569 250.388 145.083 250.362L270.951 250.409C279.925 250.417 312.857 248.82 319.118 250.966C320.636 251.486 321.447 252.357 322.073 253.826C322.017 255.114 322.031 255.777 321.075 256.79C320.068 257.857 318.914 257.897 317.57 257.964C308.162 259.326 298.527 257.83 289.069 257.922L148.675 258.498L122.519 258.49C116.154 258.535 108.952 259.454 102.73 257.994C100.875 257.559 99.7578 257.025 98.7293 255.405C98.7235 254.7 98.7681 254.189 99.1375 253.568C100.447 251.367 101.986 250.768 104.36 250.173Z"/>
	<path fill="#D78A58" transform="scale(4.88281 4.88281)" d="M367.215 874.471C371.952 876.875 397.432 904.454 402.266 910.304C392.749 922.825 379.141 934.999 367.311 945.397C360.792 940.114 355.056 933.843 349.088 927.954C343.263 922.205 336.844 916.549 331.734 910.156C336.139 904.558 341.697 899.77 346.786 894.792L367.215 874.471ZM366.994 884.38C358.457 892.848 350.045 901.505 341.16 909.609C349.656 918.321 358.011 927.729 367.303 935.591C375.717 927.031 384.385 918.658 392.599 909.91C387.73 905.053 382.84 900.211 378.055 895.269C374.727 891.83 370.967 887.018 366.994 884.38Z"/>
	<path fill="#FEFEFE" transform="scale(4.88281 4.88281)" d="M819.111 413.593C822.922 413.171 827.136 413.145 830.538 415.138C835.024 417.767 836.211 422.701 837.406 427.367L944.813 502.957C949.332 506.122 961.633 511.79 964.369 515.677C964.744 516.209 965.139 516.842 964.958 517.516C963.319 523.636 851.867 599.912 836.053 610.965C835.732 613.763 835.533 616.911 834.317 619.475C833.037 622.173 830.516 624.291 827.689 625.209C824.23 626.333 819.827 625.914 816.677 624.079C813.972 622.503 812.267 619.908 811.534 616.896C810.645 613.248 811.288 609.398 813.341 606.255C815.19 603.423 818.112 601.223 821.492 600.663C825.53 599.994 829.207 601.645 832.356 604.037C835.545 602.156 838.605 599.955 841.691 597.903C857.513 587.795 872.815 576.48 888.156 565.638L952.126 520.385C929.682 521.219 907 520.552 884.534 520.535L884.555 512.992C898.071 513.204 911.622 512.963 925.142 512.951C932.63 512.945 940.254 512.712 947.712 513.434C910.021 487.035 871.66 461.286 834.518 434.142L833.686 434.674C829.595 437.274 825.526 439.271 820.547 437.988C817.205 437.127 814.366 434.839 812.68 431.846C811.017 428.894 810.486 425.302 811.433 422.031C812.647 417.84 815.41 415.585 819.111 413.593Z"/>
	<path fill="#FEFEFE" transform="scale(4.88281 4.88281)" d="M193.124 410.532C196.275 410.388 198.75 410.454 201.644 411.82C204.786 413.303 207.124 415.951 208.246 419.237C209.378 422.557 209.08 426.189 207.414 429.275C205.794 432.274 202.988 434.537 199.688 435.412C196.06 436.374 192.069 435.766 188.858 433.889C168.521 447.568 148.582 461.955 128.346 475.804C110.449 488.053 91.6532 499.935 74.7859 513.569L135.554 513.692L135.608 520.948C113.281 520.951 90.8592 520.58 68.5516 521.529C81.4599 529.342 93.7819 538.735 106.144 547.406C129.883 564.06 153.568 580.889 177.613 597.092L186.846 603.814C189.239 602.601 191.883 601.592 194.552 601.23C197.922 600.772 201.569 601.101 204.315 603.288C207.057 605.472 208.422 609.133 208.692 612.544C208.979 616.168 207.775 619.606 205.386 622.336C203.31 624.71 200.438 626.451 197.241 626.643C193.516 626.868 189.49 624.907 186.796 622.429C183.294 619.208 183.452 614.826 183.391 610.437C174.743 602.869 164.503 596.95 155.069 590.403L90.1669 544.927C77.9451 536.391 64.6904 528.604 53.5621 518.674C66.1356 508.068 83.6148 497.616 97.5143 488.064L183.572 428.836C183.329 425.226 183.072 421.754 184.424 418.31C186.02 414.248 189.339 412.221 193.124 410.532Z"/>
	<path fill="#3974CB" transform="scale(4.88281 4.88281)" d="M915.888 219.395C917.587 219.367 919.274 219.347 920.65 220.449C923.21 225.993 921.97 269.417 921.96 278.582C929.35 278.455 937.687 277.65 944.919 279.276C947.062 316.688 945.546 354.532 945.57 392.005L918.75 392.01L890.507 391.954C889.338 354.165 891.004 316.261 890.145 278.455L914.068 278.477C914.175 264.441 913.493 250.428 913.713 236.388C913.781 232.027 913.473 226.935 914.373 222.679C914.629 221.469 915.237 220.43 915.888 219.395Z"/>
	<path fill="#58BDE7" transform="scale(4.88281 4.88281)" d="M758.697 133.716C759.855 133.983 760.982 134.241 761.816 135.165C765.454 139.197 763.759 162.397 763.562 168.448C777.54 168.726 791.924 175.017 802.533 183.94C817.115 196.206 824.428 211.842 826.148 230.609C834.101 230.494 843.27 229.567 851.084 230.997C853.281 231.4 855.161 231.965 856.461 233.878C856.585 235.366 856.498 235.624 855.861 236.983C851.677 240.18 831.989 238.552 826.082 238.446C825.19 251.85 820.476 265.459 811.887 275.905C799.11 291.446 783.079 298.071 763.507 300.043C763.733 306.279 765.604 322.325 762.771 327.657C761.971 329.164 760.922 329.553 759.428 330.133L759.274 329.995C758.821 329.595 758.369 329.198 757.956 328.755C753.939 324.431 755.638 306.312 755.966 300.083C742.651 299.737 729.447 294.792 718.936 286.647C702.605 273.991 696.551 258.103 694.08 238.182C687.494 238.612 668.45 240.125 663.551 236.091C662.44 235.175 662.396 234.973 662.351 233.644C662.758 233.083 662.803 232.967 663.382 232.458C667.511 228.831 687.832 230.523 693.87 230.819C695.285 216.324 698.796 204.274 707.99 192.685C720.057 177.477 737.272 170.547 756.133 168.29C755.753 159.96 753.244 139.877 758.697 133.716ZM763.518 175.833C763.758 194.114 764.253 212.531 763.688 230.8C781.753 230.412 799.889 230.807 817.96 230.915C818.918 229.884 818.593 228.561 818.536 227.193C817.973 213.819 808.969 199.968 799.327 191.234C789.783 182.588 776.49 176.452 763.518 175.833ZM754.911 176.236C737.994 178.408 723.505 185.211 712.982 198.969C707.788 205.758 700.84 220.194 701.581 228.824C701.654 229.68 701.693 229.696 701.915 230.394C702.396 230.493 702.884 230.646 703.375 230.626L755.927 230.99C755.835 225.248 756.722 178.108 755.585 176.196L754.911 176.236ZM763.912 238.46L764.032 292.701C778.344 291.264 791.201 285.462 801.573 275.439C811.136 265.282 817.972 252.656 818.64 238.445L763.912 238.46ZM701.283 238.356C704.77 256.574 710.146 271.104 726.123 281.903C733.987 287.218 745.577 292.964 755.329 292.849C755.477 292.847 755.619 292.791 755.764 292.762C755.611 274.716 755.339 256.488 755.941 238.454C737.724 238.377 719.499 238.183 701.283 238.356Z"/>
	<path fill="#58BDE7" transform="scale(4.88281 4.88281)" d="M116.299 709.291C133.314 708.412 150.343 709.394 167.361 709.418C187.502 709.447 207.563 708.658 227.708 709.491C233.299 713.732 238.237 719.374 243.187 724.337L267.103 747.977L305.302 785.008C312.517 791.981 319.992 798.816 326.846 806.145C328.152 807.541 328.999 808.747 329.599 810.572C329.572 812.134 328.803 813.112 327.897 814.314C321.923 822.238 314.043 829.254 307.037 836.267L271.637 871.653C261.517 881.775 251.865 892.374 241.771 902.536C237.704 906.63 233.699 911.094 229.164 914.672C221.222 915.671 212.794 915.15 204.771 915.212C187.589 915.345 170.514 915.314 153.337 915.107C139.62 914.941 125.841 916.089 112.115 915.446C109.648 915.331 105.461 915.234 103.465 913.853C100.968 903.305 102.361 885.337 102.447 873.912L102.512 824.667L102.445 759.787C102.313 746.17 101.461 732.447 102.064 718.837C102.195 715.883 102.555 713.057 104.09 710.488C106.757 708.415 112.934 709.251 116.299 709.291ZM117.941 717.739L111.035 717.848L111.465 906.996L217.625 906.956L223.323 906.97C222.278 843.857 223.32 780.647 222.928 717.518L117.941 717.739ZM232.216 725.741L231.555 833.75L231.772 881.139C231.755 887.553 231.999 894.099 231.664 900.499C245.203 885.919 259.861 872.158 273.821 857.959C289.275 842.414 304.248 826.378 319.79 810.933C297.713 788.96 275.195 767.377 252.784 745.741C247.516 740.656 237.722 729.288 232.216 725.741Z"/>
	<path fill="#3974CB" transform="scale(4.88281 4.88281)" d="M792.468 669.7C821.005 667.368 851.798 677.355 874.272 694.902C899.813 714.845 916.98 744.27 920.844 776.53C924.96 810.893 915.881 844.607 894.334 871.809C872.71 899.109 842.328 913.039 808.307 916.969C777.541 918.323 749.489 909.493 725.158 890.673C699.908 871.143 682.836 841.422 678.907 809.69C674.734 775.993 683.841 742.886 704.778 716.145C727.577 687.026 756.283 673.999 792.468 669.7ZM798.584 678.712C766.657 680.596 737.784 692.732 716.339 717.004C695.776 740.277 685.358 771.593 687.466 802.503C689.425 831.225 703.944 859.577 725.598 878.479C747.071 897.225 773.006 907.866 801.591 907.561C833.56 906.523 861.657 893.061 883.375 869.712C903.25 848.344 913.415 816.958 912.347 788.031C911.201 757.009 897.466 728.799 874.7 707.823C855.57 690.197 825.816 677.485 799.491 678.663L798.584 678.712Z"/>
	<path fill="#032D7B" transform="scale(4.88281 4.88281)" d="M795.35 704.215C795.474 704.195 795.597 704.168 795.721 704.155C816.983 701.944 840.042 711.07 856.293 724.334C875.377 739.911 885.629 761.582 887.931 785.891C890.178 809.623 882.339 833.105 867.158 851.332C851.429 870.218 828.743 880.181 804.62 882.346C781.739 883.29 761.798 876.484 744.113 861.908C725.754 846.777 713.59 825.579 711.494 801.75C709.298 776.778 715.712 754.159 732.046 734.94C748.6 715.463 770.195 706.219 795.35 704.215ZM799.378 714.215C775.408 715.39 757.248 723.182 740.928 741.042C727.169 756.1 720.571 776.574 721.549 796.802C722.599 818.523 732.968 838.129 749.096 852.506C763.272 865.143 781.139 871.773 800.124 871.81C823.261 870.819 842.191 862.515 858.068 845.314C871.114 831.181 878.813 810.255 877.963 791.001C877.05 770.305 868.573 749.264 853.09 735.22C837.823 721.373 819.794 715.182 799.378 714.215Z"/>
	<path fill="#FEFEFE" transform="scale(4.88281 4.88281)" d="M794.273 741.63C807.214 740.9 818.31 743.392 829.157 750.735C840.452 758.381 848.249 770.185 850.743 783.616C853.339 797.594 850.07 812.803 841.889 824.448C833.25 836.746 821.072 842.965 806.579 845.422C793.605 846.494 781.063 844.593 770.208 837.039C759.001 829.239 751.247 816.051 748.962 802.677C746.662 789.223 749.385 774.554 757.349 763.362C766.287 750.799 779.332 744.237 794.273 741.63ZM793.278 747.643C780.553 749.91 769.604 755.969 762.144 766.722C754.933 777.117 751.993 790.115 754.342 802.58C756.529 814.183 763.481 825.472 773.315 832.125C783.166 838.789 795.558 840.597 807.19 839.37C820.178 836.133 831.538 830.486 838.68 818.669C845.33 807.669 847.74 794.117 844.517 781.604C841.395 769.485 833.143 759.049 822.307 752.836C813.382 747.718 803.377 746.66 793.278 747.643Z"/>
	<path fill="#FEFEFE" transform="scale(4.88281 4.88281)" d="M799.336 767.548C802.474 767.492 805.697 767.958 808.669 768.984C813.923 770.799 818.141 774.458 820.498 779.511C823.187 785.275 823.185 792.138 821.015 798.063C818.86 803.946 814.318 809.163 808.513 811.642C803.298 813.869 797.113 813.937 791.906 811.635C787.475 809.675 785.429 806.285 783.768 801.978C788.865 794.782 795.765 789.96 802.801 784.827C804.032 784.03 805.679 782.658 807.231 782.994C808.52 783.273 808.642 783.586 809.219 784.651C808.449 792.064 794.953 796.679 790.76 802.697C790.523 804.249 790.507 804.229 791.32 805.57C794.308 807.468 798.176 807.528 801.595 807.014C806.389 806.293 811.138 803.708 814.011 799.746C816.878 795.794 817.289 790.42 816.391 785.734C815.602 781.613 813.315 777.909 809.702 775.698C804.407 772.457 800.892 774.037 795.425 775.196C793.866 775.526 792.883 775.303 791.574 774.448C791.262 773.306 791.169 772.53 791.834 771.458C793.417 768.908 796.656 768.339 799.336 767.548Z"/>
	<path fill="#FEFEFE" transform="scale(4.88281 4.88281)" d="M508.295 69.7793C513.108 73.9363 522.596 90.3678 526.504 96.4712L556.044 142.717L695.153 357.797C695.516 380.303 695.058 402.889 695.195 425.411C725.824 445.13 755.633 466.631 785.265 487.817L806.73 502.99C812.23 506.803 818.093 510.517 823.157 514.901C824.466 516.034 825.171 516.76 825.54 518.463C825.123 519.708 824.661 520.511 823.676 521.401C819.303 525.354 813.806 528.652 808.981 532.089C798.558 539.513 788.134 546.921 777.575 554.15L695.723 610.514L695.519 665.3C686.603 678.692 678.217 692.485 669.425 705.97L544.827 900.051C540.267 907.182 512.703 952.99 509.262 955.741C498.072 941.62 488.797 924.526 479.22 909.209L430.326 831.896L355.993 715.151C350.458 706.561 345.157 697.771 339.547 689.244C334.403 681.426 326.545 672.281 323.421 663.644C319.93 653.993 321.48 621.224 321.787 609.397C315.272 603.289 302.353 595.453 294.616 590.003C268.149 571.357 241.186 553.43 214.368 535.295C211.025 533.035 194.781 522.885 193.053 520.599C192.232 519.514 192.256 519.116 192.359 517.86C197.171 512.804 203.7 509.162 209.435 505.247L235.37 487.567L322.49 427.999C321.507 419.074 320.668 366.317 322.745 360.206C324.924 353.792 338.127 335.902 342.513 329.266C350.584 317.054 358.327 304.645 366.186 292.296L449.682 160.533C468.965 130.099 487.969 99.5353 508.295 69.7793ZM512.157 88.7961L512.097 206.897L504.563 207.051C504.414 167.773 505.526 128.232 504.135 88.9915L374.561 292.35L344.207 340.413C339.289 348.081 333.463 355.614 329.121 363.583L329.027 423.244C342.135 415.485 354.119 406.085 366.676 397.494C389.749 381.708 413.029 366.216 435.797 349.988C460.495 332.922 485.324 315.999 509.659 298.416C525.526 308.395 540.562 319.595 555.994 330.215L632.784 382.375C651.122 394.969 669.177 408.235 687.913 420.219C687.817 400.458 688.352 380.58 687.899 360.833C680.465 348.631 672.437 336.768 664.736 324.73L608.527 237.223L538.698 129.102C531.054 117.326 523.892 105.14 516.073 93.5029C514.986 91.8853 513.818 89.8727 512.157 88.7961ZM329.379 614.472C329.225 629.713 329.263 644.935 329.455 660.176C345.242 684.304 360.335 708.878 375.8 733.212L447.309 845.401C461.093 867.198 474.618 889.155 488.669 910.783C493.876 918.799 498.938 927.045 504.473 934.833L504.722 841.848C504.763 825.41 504.477 808.884 504.967 792.459L512.46 792.352L512.615 937.37C532.626 904.749 553.503 872.687 574.054 840.407L660.736 705.155C665.134 698.257 669.496 691.33 673.99 684.494C677.982 678.421 684.814 670.171 687.031 663.49C690.038 654.433 687.982 626.459 687.953 615.651C669.006 629.685 649.524 642.791 630.113 656.156L568.847 698.42L534.676 722.038C526.709 727.603 518.789 733.479 510.337 738.299C502.322 732.535 493.939 727.237 485.834 721.586L385.223 652.655L349.155 627.815C342.762 623.37 336.236 618.119 329.379 614.472Z"/>
	<defs>
		<linearGradient id="gradient_0" gradientUnits="userSpaceOnUse" x1="730.94037" y1="551.578" x2="569.66431" y2="637.92139">
			<stop offset="0" stop-color="#022976"/>
			<stop offset="1" stop-color="#0563BB"/>
		</linearGradient>
	</defs>
	<path fill="url(#gradient_0)" transform="scale(4.88281 4.88281)" d="M702.92 519.639L703.889 520.089C705.758 520.965 708.764 521.74 710.288 523.021C714.626 526.667 724.008 553.975 730.373 562.199C731.913 564.188 736.135 567.904 738.458 568.796C739.841 569.328 740.229 568.514 741.463 569.739C709.163 593.159 675.72 615.277 642.894 637.979L611.582 659.721C604.826 664.502 598.004 669.977 590.757 673.965L584.543 668.251C584.832 664.018 586.119 659.925 585.877 655.643C585.22 644.051 580.937 631.264 583.236 619.733C583.534 618.236 584.12 617.734 585.315 616.916C586.254 616.273 587.034 615.634 587.851 614.84L588.158 614.539C635.503 593.638 677.15 565.788 702.92 519.639Z"/>
	<path fill="#3974CB" transform="scale(4.88281 4.88281)" d="M509.348 308.42C513.392 308.684 718.933 450.326 737.594 463.353C756.157 476.313 774.492 489.61 792.836 502.877C799.794 507.91 808.29 512.695 814.371 518.696L814.444 519.43C813.687 520.013 813.061 520.457 812.169 520.807C788.939 537.447 765.308 554 741.463 569.739C740.229 568.514 739.841 569.328 738.458 568.796C736.135 567.904 731.913 564.188 730.373 562.199C724.008 553.975 714.626 526.667 710.288 523.021C708.764 521.74 705.758 520.965 703.889 520.089L702.92 519.639C700.398 516.428 698.331 512.624 696.113 509.184C691.275 501.678 686.318 494.154 680.415 487.431C649.768 452.527 604.989 428.537 559.684 419.248C543.191 415.867 526.641 414.637 509.885 413.502L509.967 348.749C509.983 335.475 510.849 321.594 509.348 308.42Z"/>
	<defs>
		<linearGradient id="gradient_1" gradientUnits="userSpaceOnUse" x1="796.98523" y1="500.17941" x2="720.55762" y2="546.11829">
			<stop offset="0" stop-color="#000D58"/>
			<stop offset="1" stop-color="#022A78"/>
		</linearGradient>
	</defs>
	<path fill="url(#gradient_1)" transform="scale(4.88281 4.88281)" d="M703.889 520.089C725.238 519.555 746.675 520.005 768.035 519.996C781.66 519.99 795.758 519.151 809.3 520.09C810.432 520.169 811.146 520.357 812.169 520.807C788.939 537.447 765.308 554 741.463 569.739C740.229 568.514 739.841 569.328 738.458 568.796C736.135 567.904 731.913 564.188 730.373 562.199C724.008 553.975 714.626 526.667 710.288 523.021C708.764 521.74 705.758 520.965 703.889 520.089Z"/>
	<path fill="#032D7B" transform="scale(4.88281 4.88281)" d="M203.465 518.478C215.764 509.021 229.464 500.881 242.318 492.144L322.782 437.27L454.341 346.959C472.764 334.229 490.707 320.84 509.348 308.42C510.849 321.594 509.983 335.475 509.967 348.749L509.885 413.502C452.514 411.122 398.805 436.116 357.065 474.444C342.121 488.167 327.629 503.85 316.663 520.965C324.1 532.383 332.82 542.387 342.209 552.217C374.843 586.384 416.858 614.246 463.62 624.049C476.766 626.805 490.034 628.677 503.474 629.065C524.326 628.972 544.755 627.082 564.957 621.696C572.788 619.608 580.371 616.756 588.158 614.539L587.851 614.84C587.034 615.634 586.254 616.273 585.315 616.916C584.12 617.734 583.534 618.236 583.236 619.733C580.937 631.264 585.22 644.051 585.877 655.643C586.119 659.925 584.832 664.018 584.543 668.251L590.757 673.965C573.649 687.059 553.95 699.724 535.937 711.811C527.868 717.226 519.462 723.9 511.317 728.828C504.641 726.802 469.217 700.518 460.535 694.581L283.572 572.963L235.616 540.515C224.817 533.302 213.761 526.408 203.465 518.478Z"/>
	<path fill="#3974CB" transform="scale(4.88281 4.88281)" d="M588.158 614.539L587.851 614.84C587.034 615.634 586.254 616.273 585.315 616.916C584.12 617.734 583.534 618.236 583.236 619.733C580.937 631.264 585.22 644.051 585.877 655.643C586.119 659.925 584.832 664.018 584.543 668.251L590.757 673.965C573.649 687.059 553.95 699.724 535.937 711.811C527.868 717.226 519.462 723.9 511.317 728.828C513.536 717.578 512.083 702.261 512.017 690.69C511.9 670.279 512.067 649.886 511.739 629.474C508.932 629.495 506.258 629.488 503.474 629.065C524.326 628.972 544.755 627.082 564.957 621.696C572.788 619.608 580.371 616.756 588.158 614.539Z"/>
	<path fill="#FEFEFE" transform="scale(4.88281 4.88281)" d="M505.003 758.77L512.199 758.897L512.212 771.531C509.946 771.968 507.293 771.698 504.978 771.692C504.827 767.384 504.93 763.079 505.003 758.77Z"/>
	<path fill="#FEFEFE" transform="scale(4.88281 4.88281)" d="M505.991 227.195L512.798 227.255C512.592 231.8 512.696 236.393 512.668 240.946L505.99 241.001C505.817 236.405 505.941 231.793 505.991 227.195Z"/>
	<path fill="#FEFEFE" transform="scale(4.88281 4.88281)" d="M505.975 266.458L512.885 266.477C512.831 271.013 512.956 275.566 512.994 280.103L505.941 280.261L505.975 266.458Z"/>
	<path fill="#FEFEFE" transform="scale(4.88281 4.88281)" d="M316.663 520.965C327.629 503.85 342.121 488.167 357.065 474.444C398.805 436.116 452.514 411.122 509.885 413.502C526.641 414.637 543.191 415.867 559.684 419.248C604.989 428.537 649.768 452.527 680.415 487.431C686.318 494.154 691.275 501.678 696.113 509.184C698.331 512.624 700.398 516.428 702.92 519.639C677.15 565.788 635.503 593.638 588.158 614.539C580.371 616.756 572.788 619.608 564.957 621.696C544.755 627.082 524.326 628.972 503.474 629.065C490.034 628.677 476.766 626.805 463.62 624.049C416.858 614.246 374.843 586.384 342.209 552.217C332.82 542.387 324.1 532.383 316.663 520.965Z"/>
	<path fill="#032D7B" transform="scale(4.88281 4.88281)" d="M611.11 520.016L692.632 520.073C688.949 528.099 683.613 534.579 677.906 541.226C653.907 569.176 620.783 592.663 586.198 605.424C578.122 608.403 569.705 611.173 561.328 613.176C588.077 592.188 605.94 568.539 610.064 533.819C610.396 531.025 610.559 528.197 610.628 525.384C611.349 523.762 611.098 521.78 611.11 520.016Z"/>
	<path fill="#3974CB" transform="scale(4.88281 4.88281)" d="M564.409 428.84C576.373 433.267 588.637 436.672 600.482 441.495C627.338 452.43 653.774 470.287 672.757 492.286C680.249 500.969 686.487 510.417 692.632 520.073L611.11 520.016C611.098 521.78 611.349 523.762 610.628 525.384C610.672 521.509 610.636 517.616 610.455 513.745C608.677 475.873 591.161 453.306 564.409 428.84Z"/>
	<path fill="#032D7B" transform="scale(4.88281 4.88281)" d="M454.535 429.045L455.223 429.238C453.76 431.86 448.593 434.581 446.076 436.462C442.762 438.939 439.902 442.28 437.163 445.368C416.888 468.223 406.68 497.291 408.678 527.872C410.33 553.16 420.897 576.454 437.992 595.065C444.07 601.682 450.868 607.529 457.587 613.469C438.615 608.227 419.028 599.536 402.186 589.395C372.583 571.006 349.576 547.784 327.187 521.277C360.226 477.396 401.482 444.77 454.535 429.045Z"/>
	<path transform="scale(4.88281 4.88281)" d="M509.187 420.753C532.967 421.064 556.185 431.013 572.93 447.912C592.115 467.273 602.329 494.654 601.995 521.749C601.657 549.193 590.731 575.7 570.918 594.845C555.233 610.001 533 620.782 510.913 620.506C489.985 620.617 469.561 613.217 453.748 599.525C433.116 581.661 419.467 555.429 417.603 528.117C415.663 499.692 425.166 471.529 444.075 450.173C460.838 431.241 484.437 422.219 509.187 420.753Z"/>
	<path fill="#3974CB" transform="scale(4.88281 4.88281)" d="M507.24 445.699C517.411 444.843 528.192 447.206 536.929 452.54C549.079 459.958 553.518 471.929 556.689 485.138C549.094 485.324 541.476 485.253 533.878 485.299C530.908 479.02 528.314 473.188 522.562 468.913C517.433 465.101 511.082 463.604 504.782 464.653C499.545 465.525 494.803 468.28 491.778 472.687C488.558 477.381 487.337 483.626 488.535 489.186C492.316 506.744 525.065 512.044 539.485 521.048C547.631 526.134 553.885 532.969 556.056 542.561C558.759 554.504 556.031 566.908 549.446 577.112C542.347 588.114 531.626 593.728 519.094 596.449C507.103 597.617 494.828 597.197 484.082 591.12C471.829 584.192 466.532 572.603 462.971 559.529C470.733 559.541 478.378 558.86 486.118 558.433C487.862 563.712 490.118 569.159 494.353 572.94C498.872 576.975 504.602 578.113 510.502 577.697C517.174 577.226 523.045 575.043 527.456 569.829C531.458 565.099 533.577 558.515 532.911 552.317C531.301 537.341 510.859 532.758 499.445 527.635C493.891 525.142 488.472 521.89 483.683 518.131C475.532 511.735 469.784 502.504 468.553 492.119C467.157 480.335 469.854 468.809 477.281 459.454C484.802 449.98 495.692 446.948 507.24 445.699Z"/>
</svg>
