<?xml version="1.0" encoding="utf-8" ?>
<svg xmlns="http://www.w3.org/2000/svg" xmlns:xlink="http://www.w3.org/1999/xlink" width="5000" height="5000">
	<path fill="#FEFEFE" transform="scale(4.88281 4.88281)" d="M695.236 202.013C700.538 177.534 712.64 156.903 733.974 143.012C751.806 131.401 775.041 127.438 795.793 131.879C817.265 136.474 836.511 150.277 848.394 168.66C860.724 187.736 864.848 211.438 859.925 233.582C854.945 255.987 840.505 276.057 821.078 288.257C810.688 294.781 798.426 298.373 786.307 299.825C786.715 286.058 786.169 272.134 786.287 258.335C786.422 242.494 785.694 226.699 773.857 214.831C759.54 200.475 740.63 201.601 721.845 201.907C712.979 202.052 704.103 202.001 695.236 202.013Z"/>
	<path fill="#59BDE5" transform="scale(4.88281 4.88281)" d="M106.976 790.379L107.253 443.847L107.298 349.562C107.321 325.116 106.051 300.241 110.44 276.086C116.62 242.073 130.702 210.254 152.573 183.416C181.471 147.955 220.781 125.924 266.435 121.277C315.786 116.254 363.151 132.455 405.906 155.894C418.46 162.776 431.284 170.055 442.391 179.126C432.21 179.504 399.395 176.797 392.418 180.779C388.692 185.385 390.437 197.126 390.683 202.995L316.745 202.483C302.831 202.435 285.927 200.77 272.4 203.812C264.88 205.504 257.828 209.352 252.323 214.745C240.032 226.787 238.451 240.58 238.405 257.031L238.642 790.51C216.967 790.786 195.265 790.548 173.586 790.551C151.391 790.554 129.168 790.795 106.976 790.379Z"/>
	<path fill="#0A5095" transform="scale(4.88281 4.88281)" d="M786.446 327.949L873.299 327.958C887.998 327.959 902.774 327.655 917.466 327.994L917.023 632.495L916.982 711.065C917.032 736.346 918.771 762.532 913.212 787.37C906.354 818.012 890.064 846.312 867.874 868.42C842.455 893.746 807.238 910.941 771.613 915.499C762.929 916.61 754.056 916.697 745.313 916.668L106.622 916.616L106.484 835.894C106.471 820.884 105.683 805.331 106.976 790.379C129.168 790.795 151.391 790.554 173.586 790.551C195.265 790.548 216.967 790.786 238.642 790.51C239.074 800.486 238.656 810.581 238.573 820.569C238.436 836.886 238.473 852.063 250.616 864.515C259.986 874.122 270.667 876.298 283.59 876.496C318.128 877.028 352.747 876.436 387.294 876.433L600.56 876.442L703.95 876.432L734.458 876.506C740.69 876.526 747.165 876.881 753.353 876.157C761.156 875.245 768.515 871.828 774.123 866.307C779.639 860.876 783.607 853.619 785.015 845.995C786.75 836.601 786.103 826.455 786.08 816.934L786.012 778.267L786.035 632.295C818.893 598.468 853.524 566.364 886.257 532.382C860.692 507.203 834.865 482.18 810.02 456.292C802.278 464.211 794.343 471.938 786.442 479.697L786.446 327.949Z"/>
	<path transform="scale(4.88281 4.88281)" d="M462.413 179.17C462.193 158.23 460.996 136.583 476.749 120.435C486.026 110.927 498.648 105.999 511.86 105.841C525.037 105.682 538.02 111.312 547.334 120.552C563.966 137.051 561.351 158.001 562.065 179.374C571.929 178.677 623.258 176.996 629.708 181.278C633.411 186.94 631.601 195.485 631.487 201.958C652.708 201.961 674.024 201.572 695.236 202.013C704.103 202.001 712.979 202.052 721.845 201.907C740.63 201.601 759.54 200.475 773.857 214.831C785.694 226.699 786.422 242.494 786.287 258.335C786.169 272.134 786.715 286.058 786.307 299.825C786.277 309.197 786.547 318.581 786.446 327.949L786.442 479.697C794.343 471.938 802.278 464.211 810.02 456.292C834.865 482.18 860.692 507.203 886.257 532.382C853.524 566.364 818.893 598.468 786.035 632.295L786.012 778.267L786.08 816.934C786.103 826.455 786.75 836.601 785.015 845.995C783.607 853.619 779.639 860.876 774.123 866.307C768.515 871.828 761.156 875.245 753.353 876.157C747.165 876.881 740.69 876.526 734.458 876.506L703.95 876.432L600.56 876.442L387.294 876.433C352.747 876.436 318.128 877.028 283.59 876.496C270.667 876.298 259.986 874.122 250.616 864.515C238.473 852.063 238.436 836.886 238.573 820.569C238.656 810.581 239.074 800.486 238.642 790.51L238.405 257.031C238.451 240.58 240.032 226.787 252.323 214.745C257.828 209.352 264.88 205.504 272.4 203.812C285.927 200.77 302.831 202.435 316.745 202.483L390.683 202.995C390.437 197.126 388.692 185.385 392.418 180.779C399.395 176.797 432.21 179.504 442.391 179.126C449.06 179.118 455.747 179.012 462.413 179.17Z"/>
	<path fill="#FEFEFE" transform="scale(4.88281 4.88281)" d="M508.228 136.614C510.911 136.21 513.631 136.169 516.235 137.034C519.934 138.264 522.962 140.921 524.595 144.465C526.118 147.769 526.301 151.567 525.006 154.976C523.259 159.571 519.928 161.806 515.683 163.765C515.523 163.795 515.362 163.822 515.202 163.854C512.499 164.394 510.045 164.272 507.397 163.435C504.064 162.38 501.233 160.016 499.662 156.882C497.831 153.23 497.576 148.84 499.064 145.023C500.849 140.443 503.966 138.477 508.228 136.614Z"/>
	<path fill="#3974CB" transform="scale(4.88281 4.88281)" d="M402.744 191.523L620.353 191.316C619.735 215.699 619.97 240.106 619.986 264.497L402.746 264.225C402.632 239.982 402.392 215.768 402.744 191.523Z"/>
	<path fill="#12B593" transform="scale(4.88281 4.88281)" d="M809.886 472.322C816.679 476.933 827.017 489.933 833.279 496.374C845.258 508.698 857.767 520.583 869.94 532.727C860.801 542.255 851.245 551.453 841.904 560.787L775.809 626.168L627.5 772.754L558.317 704.55L518.256 665.574C511.428 658.96 503.718 652.369 497.601 645.113C517.253 625.005 538.004 605.93 557.314 585.516C580.676 607.257 602.947 630.362 625.666 652.788C648.067 633.333 668.314 611.077 689.459 590.258L809.886 472.322Z"/>
	<path fill="#FEFEFE" transform="scale(4.88281 4.88281)" d="M746.668 831.602C746.01 832.458 745.344 833.328 744.596 834.107C739.368 839.558 729.528 838.476 722.559 838.574C694.732 838.963 666.829 838.281 638.99 838.27L439.838 838.257L348.49 838.349L310.077 838.387C303.894 838.35 297.375 838.69 291.232 838.074C286.927 837.641 283.664 836.204 280.609 833.101C276.563 828.99 276.013 824.867 275.685 819.392C274.535 800.161 275.937 780.432 275.94 761.146L275.9 633.582L275.741 263.941C275.771 257.975 274.852 248.262 279.528 243.93C281.22 242.363 282.952 241.907 285.202 241.598C298.339 239.798 312.148 240.953 325.396 240.978C347.278 241.019 369.169 240.719 391.04 241.527C390.889 248.315 388.602 269.1 392.709 274.321C394.044 276.017 396.696 276.056 398.693 276.233C415.336 277.707 432.766 276.305 449.504 276.321L556.529 276.486C565.956 276.488 626.291 277.769 628.717 275.191C633.187 270.444 631.513 248.615 631.41 241.505L700.796 241.322C715.17 241.275 729.489 240.686 743.841 241.697C745.663 243.297 747.009 244.991 748.431 246.929L748.268 515.991C739.891 522.888 732.473 530.678 724.796 538.316L695.437 567.421C672.236 590.433 648.141 612.836 625.877 636.75C604.859 614.338 582.199 593.23 560.304 571.663C559.002 570.752 558.633 570.251 557.012 570.249L554.414 572.119C544.463 582.164 534.721 592.875 524.068 602.166C519.639 607.043 511.8 616.197 506.6 619.745C497.963 628.292 489.018 636.687 480.835 645.667C494.3 659.824 508.635 673.212 522.664 686.81C528.898 691.708 534.459 698.012 539.988 703.686C551.115 714.122 562.189 724.582 572.833 735.517C578.361 740.69 583.984 746.058 589.017 751.708C602.232 764.031 614.754 777.062 627.649 789.714C649.905 766.402 673.268 744.079 696.317 721.551L747.517 670.687L747.965 779.26L747.695 810.495C747.595 817.491 747.786 824.681 746.668 831.602Z"/>
	<path fill="#59BDE5" transform="scale(4.88281 4.88281)" d="M437.211 603.322C437.308 603.305 437.405 603.289 437.502 603.271C446.39 601.554 455.93 602.372 464.951 602.432C484.592 602.562 504.457 603.558 524.068 602.166C519.639 607.043 511.8 616.197 506.6 619.745C499.635 618.819 492.15 619.316 485.144 619.425C472.881 619.616 460.6 619.997 448.338 619.66C444.205 619.546 436.617 619.456 433.754 616.122C432.438 614.591 432.217 612.555 432.481 610.622C432.955 607.161 434.551 605.42 437.211 603.322Z"/>
	<path fill="#59BDE5" transform="scale(4.88281 4.88281)" d="M522.664 686.81C528.898 691.708 534.459 698.012 539.988 703.686C523.434 704.696 506.959 703.845 490.405 703.982C474.305 704.115 456.598 705.496 440.659 703.651C438.747 703.43 437.068 702.918 435.499 701.774C433.798 700.533 432.115 698.299 431.982 696.12C431.865 694.219 432.425 692.537 433.702 691.117C435.904 688.667 439.155 687.613 442.338 687.23C448.707 686.464 455.441 687.465 461.866 687.501C481.974 687.614 502.629 688.5 522.664 686.81Z"/>
	<path fill="#59BDE5" transform="scale(4.88281 4.88281)" d="M572.833 735.517C578.361 740.69 583.984 746.058 589.017 751.708C581.666 752.585 574.104 752.226 566.714 752.26L535.931 752.49L437.892 752.5C435.257 750.578 433.166 748.245 432.404 744.997C432.017 743.346 432.124 741.623 433.058 740.17C434.714 737.592 437.906 736.72 440.744 736.259C449.581 734.823 459.214 735.893 468.167 735.951L538.331 736.303C549.171 736.31 562.296 737.414 572.833 735.517Z"/>
	<path fill="#59BDE5" transform="scale(4.88281 4.88281)" d="M498.783 449.23C506.516 448.76 514.338 449.229 522.089 449.242L576.6 449.541L656.344 449.499C667.566 449.457 678.796 448.829 690.016 449.063C692.213 449.109 695.256 449.168 697.165 450.378C699.182 451.657 701.2 455.801 701.335 458.177C701.44 460.002 700.722 461.634 699.431 462.909C695.716 466.575 690.712 466.223 685.912 466.262L557.855 465.959L518.827 465.992C510.697 466.061 502.439 466.631 494.332 465.904C490.877 465.595 486.911 465.338 484.644 462.316C483.525 460.823 483.343 459.014 483.743 457.244C484.581 453.539 486.834 451.506 489.925 449.571L498.783 449.23Z"/>
	<path fill="#59BDE5" transform="scale(4.88281 4.88281)" d="M489.531 400.545C508.937 400.456 693.294 399.834 695.681 401.057C697.905 402.197 699.874 404.534 700.806 406.83C701.581 408.736 701.536 410.708 700.691 412.587C699.518 415.196 697.758 416.483 695.151 417.463C670.659 418.157 646.072 417.719 621.569 417.714L490.053 417.503C488.208 416.38 486.645 415.305 485.355 413.533C483.995 411.667 483.405 409.431 483.908 407.156C484.613 403.965 486.91 402.197 489.531 400.545Z"/>
	<path fill="#59BDE5" transform="scale(4.88281 4.88281)" d="M438.696 571.491C436.528 570.233 434.356 568.867 433.298 566.491C432.527 564.76 432.151 562.262 433.003 560.5C434.094 558.248 436.505 556.494 438.864 555.781C446.948 553.34 460.913 554.944 469.682 554.981L509.342 555.016L608.274 554.526C622.897 554.497 637.644 553.865 652.251 554.44C654.664 554.534 657.166 555.011 659.246 556.291C660.978 557.357 662.179 558.885 662.514 560.917C662.912 563.328 661.89 566.034 660.384 567.894C658.744 569.92 656.44 571.177 653.893 571.652C648.49 572.658 638.553 571.555 632.555 571.533L588.084 571.48C578.846 571.452 569.521 570.969 560.304 571.663C559.002 570.752 558.633 570.251 557.012 570.249L554.414 572.119C552.471 571.061 549.458 571.121 547.276 571.069C537.894 570.843 528.429 571.476 519.03 571.487L438.696 571.491Z"/>
	<path fill="#097C72" transform="scale(4.88281 4.88281)" d="M327.306 690.514L392.754 690.497C392.75 710.749 394.295 731.386 392.525 751.577L392.345 752.26C390.518 753.449 334.116 752.72 327.517 752.72L327.306 690.514Z"/>
	<path fill="#097C72" transform="scale(4.88281 4.88281)" d="M327.549 554.748L392.729 554.731C392.716 576.253 392.833 597.786 392.498 619.304C370.848 619.015 349.169 619.229 327.517 619.228L327.549 554.748Z"/>
	<path fill="#3974CB" transform="scale(4.88281 4.88281)" d="M439.384 384.928C455.072 371.964 469.986 357.695 485.229 344.183C493.634 336.732 502.086 328.918 511.503 322.746C504.668 332.768 496.123 341.795 488.132 350.912C474.911 365.994 461.517 381.052 447.728 395.616C451.009 404.16 453.384 413.638 454.061 422.761C455.399 440.802 449.079 458.993 437.217 472.61C424.963 486.677 407.817 496.315 389.014 497.558C370.02 498.813 350.512 492.912 336.207 480.137C322.031 467.478 313.41 450.695 312.394 431.61C311.398 412.883 317.376 395.198 330.065 381.29C342.664 367.48 360.782 359.25 379.431 358.556C394.665 357.99 412.003 362.761 424.419 371.747C429.753 375.608 434.559 380.446 439.384 384.928Z"/>
	<path transform="scale(4.88281 4.88281)" d="M439.384 384.928C455.072 371.964 469.986 357.695 485.229 344.183C493.634 336.732 502.086 328.918 511.503 322.746C504.668 332.768 496.123 341.795 488.132 350.912C474.911 365.994 461.517 381.052 447.728 395.616C425.915 420.656 402.215 443.971 380.113 468.726C360.432 453.292 341.488 436.733 322.508 420.445C327.558 415.495 332.372 410.261 337.148 405.048C350.113 418.008 365.018 428.89 379.043 440.639C398.643 421.527 419.394 403.629 439.384 384.928Z"/>
</svg>
