<?xml version="1.0" encoding="utf-8" ?>
<svg xmlns="http://www.w3.org/2000/svg" xmlns:xlink="http://www.w3.org/1999/xlink" width="5000" height="5000">
	<path fill="#FEFFFE" transform="scale(4.88281 4.88281)" d="M242.319 726.404C244.257 729.968 242.861 832.856 243.928 848.522C202.397 848.394 160.766 847.745 119.245 848.463C130.815 835.516 143.842 823.758 156.152 811.508L242.319 726.404Z"/>
	<path fill="#F66124" transform="scale(4.88281 4.88281)" d="M596.531 225.345C601.661 204.106 617.208 183.112 632.336 167.537C663.684 135.261 701.992 119.877 746.834 119.261C791.212 120.658 831.606 137.95 862.235 170.391C891.468 201.353 906.728 243.379 905.466 285.829C904.267 326.119 885.294 365.075 856.056 392.467C850.921 397.277 845.547 401.864 839.723 405.822C835.461 408.718 830.917 411.237 826.689 414.16C812.147 404.857 783.992 397.863 767.021 397.179C760.955 397.378 754.863 397.442 748.839 398.226C748.466 398.388 747.357 398.514 746.939 398.589C744.355 397.509 742.821 389.284 742.013 386.491C740.037 379.665 738.098 372.904 735.533 366.268C731.773 356.536 727.112 347.129 723.034 337.524C720.122 333.935 717.908 329.529 715.511 325.576C711.868 319.566 708.056 313.667 703.849 308.033C676.017 270.768 639.696 242.728 596.531 225.345Z"/>
	<path transform="scale(4.88281 4.88281)" d="M746.651 275.683C753.429 275.332 760.231 275.473 767.016 275.503L767.021 397.179C760.955 397.378 754.863 397.442 748.839 398.226C748.466 398.388 747.357 398.514 746.939 398.589C744.355 397.509 742.821 389.284 742.013 386.491C740.037 379.665 738.098 372.904 735.533 366.268C731.773 356.536 727.112 347.129 723.034 337.524C723.023 323.511 722.5 309.531 722.655 295.513L722.743 275.703L746.651 275.683Z"/>
	<path fill="#07469F" transform="scale(4.88281 4.88281)" d="M722.655 295.513L747.502 295.514L747.246 363.815C747.284 374.921 746.964 386.348 747.778 397.41C748.129 397.726 748.409 398.024 748.839 398.226C748.466 398.388 747.357 398.514 746.939 398.589C744.355 397.509 742.821 389.284 742.013 386.491C740.037 379.665 738.098 372.904 735.533 366.268C731.773 356.536 727.112 347.129 723.034 337.524C723.023 323.511 722.5 309.531 722.655 295.513Z"/>
	<path fill="#D68957" transform="scale(4.88281 4.88281)" d="M596.531 225.345C601.661 204.106 617.208 183.112 632.336 167.537C663.684 135.261 701.992 119.877 746.834 119.261C746.614 133.558 746.987 147.865 747 162.164L746.731 234.964C746.689 248.498 747.179 262.168 746.651 275.683L722.743 275.703L722.655 295.513C722.5 309.531 723.023 323.511 723.034 337.524C720.122 333.935 717.908 329.529 715.511 325.576C711.868 319.566 708.056 313.667 703.849 308.033C676.017 270.768 639.696 242.728 596.531 225.345Z"/>
	<path transform="scale(4.88281 4.88281)" d="M116.53 115.336C132.979 114.59 149.655 115.056 166.133 115.047L254.768 115.074C314.873 115.184 375.047 114.161 435.137 115.239C455.398 134.36 475.01 154.106 494.893 173.61L533.294 210.546C518.41 210.049 503.705 209.709 488.847 211.088C438.869 215.727 390.531 236.457 353.785 270.8C324.487 298.181 302.318 332.291 290.262 370.615C287.358 379.845 285.487 389.104 283.248 398.485C241.042 395.279 204.367 400.357 170.892 429.107C143.431 452.692 123.922 486.232 121.148 522.798L120.986 525.189C119.534 524.956 118.072 524.558 116.636 524.234C116.103 508.862 116.612 493.4 116.617 478.016L116.603 388.794L116.53 115.336Z"/>
	<path transform="scale(4.88281 4.88281)" d="M367.912 640.99L458.235 517.707C476.112 493.317 493.632 468.338 512.421 444.653C540.944 485.675 570.945 525.799 600.161 566.341L634.414 614.025C640.878 623.077 647.008 632.443 653.979 641.115C628.85 640.995 603.662 640.685 578.538 641.153L578.517 681.343L685.059 681.06L719.568 680.971C725.28 680.959 731.301 680.59 736.969 681.086C749.41 694.659 763.115 707.373 776.165 720.38L845.82 789.879L884.157 828.255C891.179 835.291 898.281 843.355 906.129 849.431L697.942 849.14C658.165 849.068 618.362 848.701 578.588 849.104L579.003 911.448L444.521 911.477L444.565 848.985L388.052 849.052C377.693 849.041 367.235 848.573 356.894 848.83C340.408 849.304 323.917 848.785 307.431 848.628L243.928 848.522C242.861 832.856 244.257 729.968 242.319 726.404L242.809 725.65C243.694 721.119 243.015 715.19 242.999 710.502L243.02 679.292C255.317 681.164 267.429 681.004 279.822 681.004L318.061 680.988L444.865 680.988L444.974 640.617L367.912 640.99Z"/>
	<path fill="#3974CB" transform="scale(4.88281 4.88281)" d="M242.319 726.404L242.809 725.65C244.629 730.052 256.419 741.421 260.313 745.669C269.903 756.132 356.3 847.142 356.894 848.83C340.408 849.304 323.917 848.785 307.431 848.628L243.928 848.522C242.861 832.856 244.257 729.968 242.319 726.404Z"/>
	<path fill="#098208" transform="scale(4.88281 4.88281)" d="M513.022 482.967C516.439 488.285 520.47 493.334 524.215 498.431L545.212 527.017L613.003 619.487L556.695 619.16C557.218 677.872 556.617 736.607 556.485 795.317C556.414 826.742 557.536 858.264 556.621 889.676C549.01 889.639 516.174 890.854 511.667 889.659C511.695 889.639 511.73 889.627 511.752 889.6C512.597 888.564 512.455 887.703 512.488 886.396C512.88 870.968 512.445 855.408 512.443 839.963L512.451 743.305L513.022 482.967Z"/>
	<path fill="#0CC430" transform="scale(4.88281 4.88281)" d="M410.01 618.963C433.301 585.896 458.022 553.816 482.171 521.369C488.209 513.255 494.344 505.193 500.258 496.989C503.645 492.289 506.659 486.911 510.828 482.866C512.006 482.472 511.918 482.419 513.022 482.967L512.451 743.305L512.443 839.963C512.445 855.408 512.88 870.968 512.488 886.396C512.455 887.703 512.597 888.564 511.752 889.6C511.73 889.627 511.695 889.639 511.667 889.659C496.537 889.207 481.422 889.866 466.299 889.992L466.337 619.001L410.01 618.963Z"/>
	<path fill="#58BDE5" transform="scale(4.88281 4.88281)" d="M283.248 398.485C285.487 389.104 287.358 379.845 290.262 370.615C302.318 332.291 324.487 298.181 353.785 270.8C390.531 236.457 438.869 215.727 488.847 211.088C503.705 209.709 518.41 210.049 533.294 210.546C541.762 211.922 550.329 212.782 558.759 214.339C571.725 216.733 584.227 220.657 596.531 225.345C639.696 242.728 676.017 270.768 703.849 308.033C708.056 313.667 711.868 319.566 715.511 325.576C717.908 329.529 720.122 333.935 723.034 337.524C727.112 347.129 731.773 356.536 735.533 366.268C738.098 372.904 740.037 379.665 742.013 386.491C742.821 389.284 744.355 397.509 746.939 398.589C747.357 398.514 748.466 398.388 748.839 398.226C754.863 397.442 760.955 397.378 767.021 397.179C783.992 397.863 812.147 404.857 826.689 414.16L827.034 414.405C834.074 419.318 841.719 423.145 848.698 428.318C877.008 449.302 895.919 478.729 902.35 513.493C908.983 549.351 902.071 588.073 881.317 618.371C859.398 650.369 825.207 672.094 787.102 678.992C770.385 682.019 753.864 681.54 736.969 681.086C731.301 680.59 725.28 680.959 719.568 680.971L685.059 681.06L578.517 681.343L578.538 641.153C603.662 640.685 628.85 640.995 653.979 641.115C647.008 632.443 640.878 623.077 634.414 614.025L600.161 566.341C570.945 525.799 540.944 485.675 512.421 444.653C493.632 468.338 476.112 493.317 458.235 517.707L367.912 640.99L444.974 640.617L444.865 680.988L318.061 680.988L279.822 681.004C267.429 681.004 255.317 681.164 243.02 679.292C211.189 672.927 182.404 660.313 159.771 636.27C130.323 604.989 119.766 567.178 120.986 525.189L121.148 522.798C123.922 486.232 143.431 452.692 170.892 429.107C204.367 400.357 241.042 395.279 283.248 398.485Z"/>
	<path fill="#FEFFFE" transform="scale(4.88281 4.88281)" d="M289.983 436.238L304.759 436.517C304.746 447.988 304.646 459.464 305.055 470.929C281.179 469.322 258.954 474.993 240.255 490.429C220.397 506.822 214.196 529.37 211.903 554.022L193.25 554.012L176.962 554.019C177.696 525.201 186.072 496.549 205.914 474.922C228.323 450.497 257.01 437.721 289.983 436.238Z"/>
	<path fill="#FEFFFE" transform="scale(4.88281 4.88281)" d="M497.32 261.213C502.204 260.885 507.134 260.995 512.028 260.983L512.005 300.795C481.707 300.15 454.434 305.938 429.216 323.476C398.477 344.854 383.328 375.953 376.991 412.009C368.862 412.272 360.725 412.374 352.593 412.51L335.866 412.494C339.279 378.682 352.868 345.208 375.44 319.546C407.024 283.64 449.763 264.223 497.32 261.213Z"/>
</svg>
