<?xml version="1.0" encoding="utf-8" ?>
<svg xmlns="http://www.w3.org/2000/svg" xmlns:xlink="http://www.w3.org/1999/xlink" width="5000" height="5000">
	<path fill="#124687" transform="scale(4.88281 4.88281)" d="M299.725 617.335C302.866 620.095 305.815 623.3 308.47 626.534C307.309 627.475 306.05 628.39 304.949 629.397C306.114 631.177 307.486 632.982 308.398 634.901C303.487 631.093 300.196 624.596 294.74 620.439C296.722 619.647 298.188 618.822 299.725 617.335Z"/>
	<path fill="#FEFEFE" transform="scale(4.88281 4.88281)" d="M263.728 630.474C264.306 630.437 264.651 630.402 265.257 630.431C266.911 630.51 268.635 631.09 269.651 632.482C270.352 633.443 270.512 634.626 270.335 635.778C269.93 638.422 268.352 639.654 266.361 641.204C266.051 641.248 265.745 641.332 265.433 641.335C263.954 641.35 262.048 640.599 261.145 639.405C260.411 638.436 260.239 637.295 260.311 636.112C260.473 633.453 261.8 632.138 263.728 630.474Z"/>
	<path fill="#FEFEFE" transform="scale(4.88281 4.88281)" d="M294.297 608.466C296.488 609.536 298.799 610.339 299.58 612.889C300.008 614.288 299.904 615.908 299.725 617.335C298.188 618.822 296.722 619.647 294.74 620.439C291.502 619.378 290.116 617.409 288.166 614.787C288.3 614.089 288.295 613.994 288.563 613.251C289.52 610.595 291.863 609.463 294.297 608.466Z"/>
	<path fill="#FEFEFE" transform="scale(4.88281 4.88281)" d="M243.2 649.376C245.277 649.625 247.417 650.094 248.694 651.934C249.598 653.237 249.736 654.727 249.327 656.228C248.644 658.729 246.976 659.849 244.827 661.071C244.655 661.054 244.483 661.045 244.312 661.018C242.285 660.695 239.866 659.89 238.809 657.98C238.256 656.98 238.21 655.825 238.478 654.736C239.145 652.029 240.984 650.833 243.2 649.376Z"/>
	<path fill="#58BDE5" transform="scale(4.88281 4.88281)" d="M749.325 256.258C751.212 256.481 752.637 257.522 754.167 258.596C756.963 260.559 759.759 263.319 760.179 266.909C760.444 269.18 759.052 270.6 757.695 272.207C755.454 271.817 753.345 270.21 751.563 268.833C749.423 267.179 746.839 264.223 746.774 261.333C746.723 259.014 747.871 257.889 749.325 256.258Z"/>
	<path fill="#58BDE5" transform="scale(4.88281 4.88281)" d="M728.233 235.317C730.353 235.717 731.896 236.532 733.651 237.79C736.379 239.745 738.977 242.655 739.325 246.147C739.55 248.406 738.377 249.686 736.986 251.26C735.481 251.088 734.522 250.757 733.244 249.927C730.143 247.915 726.351 244.747 725.863 240.813C725.561 238.373 726.802 237.114 728.233 235.317Z"/>
	<path fill="#124687" transform="scale(4.88281 4.88281)" d="M287.594 595.976C290.593 599.599 293.258 603.818 294.297 608.466C291.863 609.463 289.52 610.595 288.563 613.251C288.295 613.994 288.3 614.089 288.166 614.787C284.497 610.101 281.218 606.121 276.434 602.56C278.328 602.529 280.223 602.542 282.027 601.886C284.991 600.809 286.385 598.766 287.594 595.976Z"/>
	<path fill="#FEFEFE" transform="scale(4.88281 4.88281)" d="M770.976 276.497C772.302 276.392 773.65 276.268 774.968 276.505C777.12 276.893 779.202 278.141 780.421 279.978C781.715 281.93 781.866 284.198 781.298 286.43C780.523 289.472 778.411 290.916 775.888 292.515C774.983 292.761 774.234 292.827 773.308 292.727C771.106 292.489 769.008 291.561 767.675 289.741C766.221 287.757 765.914 285.208 766.29 282.827C766.759 279.85 768.677 278.213 770.976 276.497Z"/>
	<path fill="#FEFEFE" transform="scale(4.88281 4.88281)" d="M709.104 214.995C710.334 214.932 711.669 214.806 712.885 215.04C715.155 215.476 717.392 217.164 718.514 219.168C719.595 221.097 719.764 223.38 719.143 225.488C718.263 228.474 716.157 229.898 713.584 231.378C712.579 231.516 711.693 231.606 710.686 231.422C708.444 231.012 706.22 229.736 704.946 227.818C703.65 225.866 703.406 223.349 703.905 221.098C704.575 218.074 706.598 216.539 709.104 214.995Z"/>
	<path fill="#FEFEFE" transform="scale(4.88281 4.88281)" d="M270.495 596.81C270.45 594.851 270.358 592.858 271.044 590.987C271.802 588.922 273.296 586.957 275.345 586.05C278.462 584.669 281.163 585.464 284.199 586.574C286.444 589.733 287.112 592.221 287.594 595.976C286.385 598.766 284.991 600.809 282.027 601.886C280.223 602.542 278.328 602.529 276.434 602.56C273.526 600.994 272.047 599.74 270.495 596.81Z"/>
	<path fill="#58BDE5" transform="scale(4.88281 4.88281)" d="M671.896 187.319L678.549 182.985C678.65 183.109 678.749 183.234 678.85 183.357C683.531 189.007 698 199.276 698.759 205.893C698.271 207.197 698.187 207.294 697.057 208.11C694.59 208.429 692.852 207.405 690.908 205.957C683.715 200.599 678.637 193.017 671.896 187.319Z"/>
	<path fill="#FEFEFE" transform="scale(4.88281 4.88281)" d="M873.059 574.999C874.723 574.85 876.324 574.808 877.964 575.2C880.513 575.811 882.972 577.541 884.275 579.831C885.511 582.003 885.761 584.39 885.11 586.791C884.172 590.244 881.904 591.757 878.9 593.391C877.369 593.545 875.827 593.595 874.311 593.271C871.687 592.71 869.147 591.105 867.747 588.788C866.491 586.708 866.224 584.325 866.841 581.989C867.738 578.591 870.216 576.771 873.059 574.999Z"/>
	<path fill="#FEFEFE" transform="scale(4.88281 4.88281)" d="M299.509 861.964C308.946 862.074 318.398 861.953 327.837 861.942L328.016 889.668C318.603 889.523 308.888 889.051 299.515 889.883L299.509 861.964Z"/>
	<path fill="#FEFEFE" transform="scale(4.88281 4.88281)" d="M154.593 251.006C167.643 262.818 179.815 275.756 192.223 288.237L245.232 340.848C244.751 342.927 243.832 344.623 242.837 346.483C230.596 335.756 219.206 323.656 207.611 312.206C188.594 293.425 169.467 274.703 150.795 255.579L154.593 251.006Z"/>
	<path fill="#FEFEFE" transform="scale(4.88281 4.88281)" d="M861.018 358.214C870.783 358.542 880.727 358.584 890.492 358.2C890.615 368.092 890.392 377.985 890.231 387.875C888.268 389.469 865.182 388.551 860.993 388.539L861.018 358.214Z"/>
	<path transform="scale(4.88281 4.88281)" d="M684.208 177.02C685.673 174.187 687.175 171.383 688.725 168.596L689.031 169.655C692.68 170.981 716.014 170.025 721.971 170.032L822.943 169.985L822.965 176.607L750.406 176.961C728.334 176.966 706.276 176.663 684.208 177.02Z"/>
	<path transform="scale(4.88281 4.88281)" d="M687.706 145.107L822.487 145.028L822.481 151.976L735.032 152.079C720.115 152.145 704.751 153.261 689.873 152.016L687.706 145.107Z"/>
	<path fill="#D68A57" transform="scale(4.88281 4.88281)" d="M242.421 207.435L280.414 207.492C280.638 219.168 280.45 230.883 280.445 242.562C267.701 242.353 254.929 242.519 242.183 242.521C242.733 230.854 242.451 219.114 242.421 207.435Z"/>
	<path fill="#D68A57" transform="scale(4.88281 4.88281)" d="M664.906 846.553L702.019 846.588L702.058 883.351C689.766 883.263 677.208 882.513 664.951 883.293C664.643 871.065 664.839 858.785 664.906 846.553Z"/>
	<path transform="scale(4.88281 4.88281)" d="M156.035 690.668L193.561 690.527C193.558 702.75 192.606 715.896 193.96 728.005L156.07 728.003L156.035 690.668Z"/>
	<path fill="#FEFEFE" transform="scale(4.88281 4.88281)" d="M231.041 448.103C233.458 448.05 235.882 447.956 238.299 447.986C234.531 466.565 234.01 485.071 234.99 503.95C235.307 510.065 237.416 516.958 236.792 522.944C236.732 523.203 236.662 523.46 236.612 523.721C236.159 526.094 237.823 528.225 237.092 530.587C236.298 530.985 235.759 531.103 234.875 531.164C206.122 530.291 176.99 530.822 148.219 531.127C157.991 538.467 166.283 548.512 174.785 557.27C182.893 565.623 191.323 573.199 198.654 582.323L193.984 586.04C187.444 580.115 181.274 573.534 175.091 567.229C161.87 553.747 148.921 540.037 135.492 526.755C152.638 509.047 170.111 491.303 188.248 474.607C189.741 475.99 191.156 477.485 192.601 478.92C178.132 494.307 163.075 509.025 147.918 523.732C175.679 524.023 203.476 524.153 231.237 523.847C225.75 502.796 228.806 469.734 231.041 448.103Z"/>
	<path fill="#FEFEFE" transform="scale(4.88281 4.88281)" d="M386.047 130.605C392.984 130.016 400.117 131.834 405.955 135.621C412.552 139.9 417.159 146.545 418.691 154.276C420.249 162.141 418.376 170.347 413.919 176.959C408.775 184.589 401.361 188.179 392.606 189.943C385.629 190.759 379.151 189.503 373.191 185.753C366.375 181.464 361.737 174.359 360.103 166.517C358.489 158.775 360.149 150.087 364.622 143.558C369.842 135.938 377.188 132.352 386.047 130.605ZM386.282 137.581C379.817 139.013 374.466 141.739 370.708 147.43C367.222 152.708 366.117 159.323 367.573 165.468C369.018 171.567 372.721 176.948 378.157 180.146C382.134 182.485 387.908 184.122 392.499 182.881C392.813 182.796 393.125 182.703 393.438 182.614C400.104 180.622 405.792 177.222 409.276 170.973C412.129 165.856 412.821 159.926 411.224 154.291C409.585 148.504 405.846 143.436 400.544 140.516C396.204 138.126 391.192 137.278 386.282 137.581Z"/>
	<path fill="#FEFEFE" transform="scale(4.88281 4.88281)" d="M671.896 187.319C664.141 190.626 655.922 191.971 647.695 189.594C639.57 187.246 632.653 181.332 628.609 173.961C624.153 165.839 623.001 156.135 625.689 147.24C628.15 139.096 633.72 132.41 641.278 128.502C649.208 124.402 659.022 123.575 667.521 126.342C677.026 129.436 683.266 136.463 687.706 145.107L689.873 152.016C690.313 157.474 690.26 163.299 688.725 168.596C687.175 171.383 685.673 174.187 684.208 177.02C682.42 179.197 680.734 181.186 678.549 182.985L671.896 187.319Z"/>
	<path fill="#58BDE5" transform="scale(4.88281 4.88281)" d="M248.297 335.979C248.152 336.539 247.662 337.748 247.705 338.27C247.942 341.102 253.311 349.315 254.87 352.115C266.392 372.81 278.294 393.305 290.141 413.816C295.782 423.583 305.02 437.802 308.856 448.003L238.299 447.986C235.882 447.956 233.458 448.05 231.041 448.103C225.877 448.911 220 448.406 214.741 448.396L184.565 448.314C203.453 414.119 224.728 381.097 242.837 346.483C243.832 344.623 244.751 342.927 245.232 340.848C246.075 339.091 247.179 337.567 248.297 335.979Z"/>
	<path fill="#FEFEFE" transform="scale(4.88281 4.88281)" d="M508.98 104.421L515.394 104.472L515.097 221.975C590.418 223.485 663.471 253.202 716.024 307.808C732.604 325.035 743.01 341.694 756.018 361.28L835.947 281.269C845.321 272.035 856.922 258.652 866.999 250.864L871.148 254.458C865.606 261.492 858.583 267.749 852.24 274.094L817.582 308.648L779.284 347.012C772.768 353.588 766.328 361.126 759.287 367.095C774.388 398.335 785.972 430.524 790.595 465.046C791.315 470.422 792.393 476.068 792.477 481.48C791.36 482.407 789.811 482.473 788.422 482.717C787.228 482.39 786.807 482.456 786.307 481.198C784.528 476.728 784.64 469.597 784.031 464.754C783.336 459.224 782.389 453.713 781.286 448.25C770.957 397.097 745.634 346.872 708.526 309.922C657.342 258.956 587.499 228.788 515.008 229.017L515.008 270.148C515.044 277.262 515.893 285.387 514.791 292.394C513.341 293.268 510.989 293.138 509.354 292.735C508.279 290.168 508.996 236.572 508.99 229.023C486.494 228.883 463.685 232.37 441.855 237.6C371.775 254.391 309.541 302.974 272.16 363.962C278.68 375.517 285.758 386.765 292.503 398.191C302.238 414.68 311.671 431.342 321.103 448.005L308.856 448.003C305.02 437.802 295.782 423.583 290.141 413.816C278.294 393.305 266.392 372.81 254.87 352.115C253.311 349.315 247.942 341.102 247.705 338.27C247.662 337.748 248.152 336.539 248.297 335.979L251.696 330.052C257.647 339.018 262.656 348.638 268.679 357.525C279.01 341.991 289.686 327.362 302.381 313.626C342.635 270.07 397.736 239.344 455.901 227.698C473.287 224.217 491.261 222.24 508.986 221.868C508.874 182.749 508.39 143.531 508.98 104.421Z"/>
	<path fill="#FEFEFE" transform="scale(4.88281 4.88281)" d="M837.656 474.451L867.987 505.03C874.777 511.753 882.172 518.274 888.213 525.679C883.241 533.454 870.599 544.24 863.649 551.182L809.401 605.409C837.243 626.084 857.317 653.429 862.452 688.379C866.931 718.868 858.276 750.123 839.886 774.682C821.809 798.823 793.167 815.657 763.267 819.719C729.983 824.241 696.479 814.49 669.969 794.208C664.872 790.309 660.219 785.988 655.563 781.587C640.026 799.094 622.159 815.61 605.52 832.183L512.398 924.959L463.04 874.575C446.854 857.719 431.018 840.585 414.364 824.182C377.983 823.678 341.555 824.032 305.168 824.029L166.351 824.105C189.339 795.53 214.845 768.789 239.131 741.302C257.264 720.78 274.278 699.116 293.122 679.245C304.936 690.749 315.687 703.621 326.686 715.907L379.295 774.534C395.452 792.53 411.447 810.775 427.98 828.423C454.517 856.751 481.861 884.133 509.328 911.549L509.039 729.05C499.594 729.052 490.223 729.039 480.816 728.098C422.94 722.305 367.283 695.938 326.092 654.846C319.782 648.552 313.92 641.893 308.398 634.901C307.486 632.982 306.114 631.177 304.949 629.397C306.05 628.39 307.309 627.475 308.47 626.534C309.75 626.79 310.107 626.966 311.089 627.89C314.82 631.403 317.825 635.935 321.086 639.895C323.694 643.063 326.716 645.964 329.631 648.854C381.284 700.053 442.935 722.229 515.024 721.976L515.007 830.7C514.993 849.776 514.332 869.086 515.113 888.131C515.783 882.8 515.336 876.939 515.348 871.556L515.403 839.129L515.35 731.034C520.289 731.079 525.336 730.389 530.253 729.938C555.194 727.654 579.482 721.981 603.207 714.04C608.948 712.119 615.075 710.273 620.464 707.502C622.337 706.546 624.624 705.924 626.608 705.18C626.354 701.388 625.085 697.328 624.618 693.484C623.868 687.309 623.951 681.03 623.729 674.817C634.759 665.509 647.807 658.173 659.492 649.622C679.889 634.698 699.671 618.571 720.411 604.171C722.605 602.647 725.289 600.424 728.036 600.222C737.933 599.492 748.2 599.272 758.084 600.382C763.586 601 769.064 602.363 774.579 602.727L774.986 602.75C787.166 605.606 799.314 612.113 809.7 618.945C810.117 618.025 810.333 617.246 810.502 616.251C809.128 611.702 803.204 608.705 799.47 606.142C812.956 593.149 825.998 579.706 839.291 566.518C851.805 554.103 864.733 541.868 876.71 528.945L876.588 528.209C867.063 527.259 856.906 528.018 847.298 528.038L789.675 528.173L789.977 522.518C808.01 522.541 826.219 523.106 844.23 522.399L875.71 522.417C862.522 508.241 847.557 492.483 833.116 479.662C834.618 477.919 836.091 476.136 837.656 474.451ZM515.35 731.034L515.403 839.129L515.348 871.556C515.336 876.939 515.783 882.8 515.113 888.131C515.115 896.178 515.486 904.311 515.164 912.346C530.093 898.976 544.005 883.867 558.194 869.681C589.275 838.606 620.076 807.205 651.588 776.568C634.159 755.959 625.191 733.817 620.464 707.502C615.075 710.273 608.948 712.119 603.207 714.04C579.482 721.981 555.194 727.654 530.253 729.938C525.336 730.389 520.289 731.079 515.35 731.034Z"/>
	<path fill="#58BDE5" transform="scale(4.88281 4.88281)" d="M293.425 689.377C308.533 705.577 322.996 722.559 337.815 739.042L408.09 816.943L297.25 816.976L182.145 816.73C186.313 810.922 191.435 805.517 196.128 800.123C206.725 787.942 217.644 776.036 228.352 763.952L266.128 720.899C275.201 710.388 284.084 699.649 293.425 689.377Z"/>
	<path fill="#58BDE5" transform="scale(4.88281 4.88281)" d="M623.729 674.817C634.759 665.509 647.807 658.173 659.492 649.622C679.889 634.698 699.671 618.571 720.411 604.171C722.605 602.647 725.289 600.424 728.036 600.222C737.933 599.492 748.2 599.272 758.084 600.382C763.586 601 769.064 602.363 774.579 602.727L774.986 602.75C787.166 605.606 799.314 612.113 809.7 618.945C794.506 635.307 778.301 650.654 762.509 666.426L656.69 771.545C645.829 757.006 634.348 740.687 630.703 722.606C629.875 718.501 629.008 708.226 626.608 705.18C626.354 701.388 625.085 697.328 624.618 693.484C623.868 687.309 623.951 681.03 623.729 674.817Z"/>
	<path fill="#58BDE5" transform="scale(4.88281 4.88281)" d="M817.753 620.875C827.725 630.251 836.616 640.856 843.16 652.924C856.789 678.055 859.768 709.147 851.513 736.499C843.136 764.253 822.513 787.529 797.059 801.04C768.917 815.977 737.32 816.217 707.38 806.959C689.52 801.247 674.793 789.257 661.471 776.495C694.829 744.265 727.557 711.343 760.4 678.588C779.545 659.496 799.625 640.935 817.753 620.875Z"/>
	<path fill="#3874CB" transform="scale(4.88281 4.88281)" d="M515.008 229.017C587.499 228.788 657.342 258.956 708.526 309.922C745.634 346.872 770.957 397.097 781.286 448.25C782.389 453.713 783.336 459.224 784.031 464.754C784.64 469.597 784.528 476.728 786.307 481.198C786.807 482.456 787.228 482.39 788.422 482.717L787.48 483.307C787.549 487.935 788.251 492.6 788.426 497.247C788.735 505.427 788.507 513.928 789.34 522.058L824.07 522.153C830.735 522.164 837.596 521.864 844.23 522.399C826.219 523.106 808.01 522.541 789.977 522.518L789.675 528.173L847.298 528.038C856.906 528.018 867.063 527.259 876.588 528.209L876.71 528.945C864.733 541.868 851.805 554.103 839.291 566.518C825.998 579.706 812.956 593.149 799.47 606.142C803.204 608.705 809.128 611.702 810.502 616.251C810.333 617.246 810.117 618.025 809.7 618.945C799.314 612.113 787.166 605.606 774.986 602.75L774.579 602.727C769.064 602.363 763.586 601 758.084 600.382C748.2 599.272 737.933 599.492 728.036 600.222C725.289 600.424 722.605 602.647 720.411 604.171C699.671 618.571 679.889 634.698 659.492 649.622C647.807 658.173 634.759 665.509 623.729 674.817C623.951 681.03 623.868 687.309 624.618 693.484C625.085 697.328 626.354 701.388 626.608 705.18C624.624 705.924 622.337 706.546 620.464 707.502C615.075 710.273 608.948 712.119 603.207 714.04C579.482 721.981 555.194 727.654 530.253 729.938C525.336 730.389 520.289 731.079 515.35 731.034L515.403 839.129L515.348 871.556C515.336 876.939 515.783 882.8 515.113 888.131C514.332 869.086 514.993 849.776 515.007 830.7L515.024 721.976C442.935 722.229 381.284 700.053 329.631 648.854C326.716 645.964 323.694 643.063 321.086 639.895C317.825 635.935 314.82 631.403 311.089 627.89C310.107 626.966 309.75 626.79 308.47 626.534C305.815 623.3 302.866 620.095 299.725 617.335C299.904 615.908 300.008 614.288 299.58 612.889C298.799 610.339 296.488 609.536 294.297 608.466C293.258 603.818 290.593 599.599 287.594 595.976C287.112 592.221 286.444 589.733 284.199 586.574C281.163 585.464 278.462 584.669 275.345 586.05C273.296 586.957 271.802 588.922 271.044 590.987C270.358 592.858 270.45 594.851 270.495 596.81C268.436 592.115 264.628 587.983 261.532 583.9C257.714 578.864 253.94 573.655 250.892 568.113C246.937 560.921 243.174 552.961 240.516 545.215C239.089 541.058 238.554 536.039 236.683 532.133C236.3 531.333 235.672 531.411 234.875 531.164C235.759 531.103 236.298 530.985 237.092 530.587C237.823 528.225 236.159 526.094 236.612 523.721C236.662 523.46 236.732 523.203 236.792 522.944C237.416 516.958 235.307 510.065 234.99 503.95C234.01 485.071 234.531 466.565 238.299 447.986L308.856 448.003L321.103 448.005C311.671 431.342 302.238 414.68 292.503 398.191C285.758 386.765 278.68 375.517 272.16 363.962C309.541 302.974 371.775 254.391 441.855 237.6C463.685 232.37 486.494 228.883 508.99 229.023C508.996 236.572 508.279 290.168 509.354 292.735C510.989 293.138 513.341 293.268 514.791 292.394C515.893 285.387 515.044 277.262 515.008 270.148L515.008 229.017ZM876.588 528.209C866.787 528.758 856.856 528.456 847.038 528.467L789.156 528.518C787.091 546.224 784.842 563.524 781.003 580.963C779.391 588.285 776.308 595.457 774.986 602.75C787.166 605.606 799.314 612.113 809.7 618.945C810.117 618.025 810.333 617.246 810.502 616.251C809.128 611.702 803.204 608.705 799.47 606.142C812.956 593.149 825.998 579.706 839.291 566.518C851.805 554.103 864.733 541.868 876.71 528.945L876.588 528.209Z"/>
	<path transform="scale(4.88281 4.88281)" d="M503.308 323.73C517.143 323.173 531.826 324.419 545.551 326.285C586.688 331.879 625.478 346.102 660.503 368.337C666.609 372.212 674.844 376.627 679.262 382.427C678.957 382.908 678.798 383.207 678.378 383.635C677.464 384.569 676.631 384.82 675.409 384.388C670.874 382.781 663.936 376.579 659.57 373.707C653.433 369.67 647.036 365.907 640.6 362.368C608.035 344.464 566.015 331.668 528.876 329.335C478.315 326.4 426.441 337.315 381.459 360.735C372.931 365.175 365.239 370.359 357.091 375.407C354.841 376.801 350.434 379.72 347.825 379.113L347.45 378.075C347.703 376.789 348.151 376.031 349.013 375.075C354.177 369.351 363.375 365.328 370.024 361.545C412.326 337.48 454.988 326.556 503.308 323.73Z"/>
	<path transform="scale(4.88281 4.88281)" d="M242.82 519.627C251.133 513.063 258.695 505.716 266.522 498.592C276.08 489.891 285.88 481.399 295.868 473.193C315.197 457.313 335.967 442.521 357.092 429.111C416.502 391.399 471.567 371.916 542.638 380.329C636.31 391.418 713.254 456.778 781.113 517.31L780.43 517.817C773.208 523.236 767.143 530.348 760.493 536.453C750.038 546.05 738.906 555.157 727.803 564.007C656.785 620.613 570.387 665.686 477.012 652.996C435.618 647.37 396.792 628.89 361.286 607.602C349.808 600.72 338.725 592.691 326.994 586.31C312.907 587.576 298.384 585.834 284.199 586.574C281.163 585.464 278.462 584.669 275.345 586.05C273.296 586.957 271.802 588.922 271.044 590.987C270.358 592.858 270.45 594.851 270.495 596.81C268.436 592.115 264.628 587.983 261.532 583.9C257.714 578.864 253.94 573.655 250.892 568.113C246.937 560.921 243.174 552.961 240.516 545.215C239.089 541.058 238.554 536.039 236.683 532.133C236.3 531.333 235.672 531.411 234.875 531.164C235.759 531.103 236.298 530.985 237.092 530.587C237.823 528.225 236.159 526.094 236.612 523.721C236.662 523.46 236.732 523.203 236.792 522.944L242.82 519.627Z"/>
	<path fill="#124687" transform="scale(4.88281 4.88281)" d="M236.792 522.944L242.82 519.627C258.692 528.238 273.465 544.971 287.711 556.705C300.43 567.181 314.056 576.182 326.994 586.31C312.907 587.576 298.384 585.834 284.199 586.574C281.163 585.464 278.462 584.669 275.345 586.05C273.296 586.957 271.802 588.922 271.044 590.987C270.358 592.858 270.45 594.851 270.495 596.81C268.436 592.115 264.628 587.983 261.532 583.9C257.714 578.864 253.94 573.655 250.892 568.113C246.937 560.921 243.174 552.961 240.516 545.215C239.089 541.058 238.554 536.039 236.683 532.133C236.3 531.333 235.672 531.411 234.875 531.164C235.759 531.103 236.298 530.985 237.092 530.587C237.823 528.225 236.159 526.094 236.612 523.721C236.662 523.46 236.732 523.203 236.792 522.944Z"/>
	<path fill="#FEFEFE" transform="scale(4.88281 4.88281)" d="M452.303 401.159L452.591 401.264C452.389 402.166 452.269 402.092 451.549 402.658C447.537 405.817 442.717 408.158 438.533 411.178C424.93 421 413.486 433.748 405.097 448.284C389.122 475.964 384.674 509.791 392.995 540.657C401.164 570.956 421.957 597.795 449.188 613.415C478.421 630.183 511.627 634.871 544.2 625.817C575.595 617.09 602.51 595.626 618.499 567.252C633.873 539.97 638.217 505.78 629.778 475.583C620.288 441.625 600.177 417.915 569.875 400.75C587.727 404.793 604.818 411.984 621.16 420.129C661.505 440.238 695.156 466.286 730.273 494.092C739.743 501.819 749.109 509.96 758.071 518.275C743.105 530.519 728.764 543.658 713.509 555.513C658.359 598.372 592.421 636.064 521.14 639.478C429.451 643.87 331.864 577.821 266.991 519C275.4 509.679 285.896 501.419 295.489 493.281C335.27 459.536 400.137 411.924 452.303 401.159Z"/>
	<path fill="#3DA98E" transform="scale(4.88281 4.88281)" d="M504.696 401.68C504.926 401.646 505.154 401.601 505.385 401.579C530.716 399.094 558.755 409.389 578.667 424.636C599.863 440.865 614.426 466.878 617.879 493.274C621.575 521.53 613.524 550.853 596.123 573.365C576.212 599.124 549.648 610.297 518.114 614.459C491.759 615.848 466.738 608.533 445.64 592.44C423.495 575.549 408.797 549.524 405.264 521.959C401.649 493.75 410.152 465.265 427.624 442.975C447.555 417.548 473.052 405.445 504.696 401.68Z"/>
	<path fill="#FEFEFE" transform="scale(4.88281 4.88281)" d="M434.053 470.795C435.289 467.071 436.909 464.133 440.201 461.842C443.925 459.25 448.74 458.552 453.149 459.37C458.379 460.34 461.688 463.102 464.657 467.303C465.477 470.97 465.759 474.167 463.672 477.495C461.461 481.021 457.854 482.656 454.015 483.789C450.265 484.253 445.932 484.025 442.488 482.351C437.545 479.949 435.847 475.616 434.053 470.795Z"/>
	<path transform="scale(4.88281 4.88281)" d="M533.893 451.173C542.451 446.867 550.843 445.037 560.197 448.283C567.753 450.906 574.276 456.704 577.618 463.981C581.077 471.512 580.992 480.663 577.986 488.334C576.751 491.488 574.144 495.999 571.417 498.077C571.902 498.552 572.43 499.029 572.785 499.619C575.152 503.555 573.413 512.532 572.452 516.854C568.545 534.425 558.669 549.944 543.286 559.589C530.043 567.893 513.686 570.64 498.447 567.127C482.372 563.421 468.228 553.257 459.586 539.212C448.52 521.226 449.224 503.571 454.015 483.789C457.854 482.656 461.461 481.021 463.672 477.495C465.759 474.167 465.477 470.97 464.657 467.303C470.635 460.903 476.895 455.707 484.945 452.068C500.874 444.869 517.679 445.131 533.893 451.173Z"/>
	<path fill="#FEFEFE" transform="scale(4.88281 4.88281)" d="M533.893 451.173C542.451 446.867 550.843 445.037 560.197 448.283C567.753 450.906 574.276 456.704 577.618 463.981C581.077 471.512 580.992 480.663 577.986 488.334C576.751 491.488 574.144 495.999 571.417 498.077C570.281 499.056 569.146 500.041 567.988 500.994C561.777 506.107 554.023 508.775 545.94 507.947C537.863 507.119 530.008 503.192 524.937 496.774C520.076 490.62 518.233 482.572 519.164 474.862C520.401 464.625 525.956 457.332 533.893 451.173Z"/>
</svg>
